<svg width="167" height="167" viewBox="0 0 167 167" fill="none" xmlns="http://www.w3.org/2000/svg">
<path d="M137.5 4.16672V16.7783H129.167V4.16672C129.167 1.86548 131.032 0 133.333 0C135.634 0 137.5 1.86548 137.5 4.16672Z" fill="white"/>
<path fill-rule="evenodd" clip-rule="evenodd" d="M87.5001 16.7783V4.16672C87.5001 1.86548 85.6345 0 83.3333 0C81.0321 0 79.1667 1.86548 79.1667 4.16672V16.7783H37.5001V4.16672C37.5001 1.86548 35.6345 0 33.3333 0C31.0321 0 29.1667 1.86548 29.1667 4.16672V16.7783H23.5371C9.7301 16.7783 0 27.9711 0 41.7783V141.778C0 155.586 11.1929 166.778 25.0001 166.778H98.2149C85.0135 157.924 76.3245 142.864 76.3245 125.774C76.3245 98.5253 98.4137 76.4361 125.662 76.4361C142.752 76.4361 157.812 85.1251 166.667 98.3265V41.7783C166.667 27.9711 155.474 16.7783 141.667 16.7783H137.5V33.0561C137.5 35.3573 135.634 37.2227 133.333 37.2227C131.032 37.2227 129.167 35.3573 129.167 33.0561V16.7783H87.5001ZM29.1667 16.7783V33.0561C29.1667 35.3573 31.0321 37.2227 33.3333 37.2227C35.6345 37.2227 37.5001 35.3573 37.5001 33.0561V16.7783H29.1667ZM87.5001 16.7783H79.1667V33.0561C79.1667 35.3573 81.0321 37.2227 83.3333 37.2227C85.6345 37.2227 87.5001 35.3573 87.5001 33.0561V16.7783ZM31.0463 67.5425C35.1885 67.5425 38.5463 64.1847 38.5463 60.0425C38.5463 55.9003 35.1885 52.5425 31.0463 52.5425C26.9043 52.5425 23.5463 55.9003 23.5463 60.0425C23.5463 64.1847 26.9043 67.5425 31.0463 67.5425ZM74.3801 60.0425C74.3801 64.1847 71.0223 67.5425 66.8801 67.5425C62.7379 67.5425 59.3801 64.1847 59.3801 60.0425C59.3801 55.9003 62.7379 52.5425 66.8801 52.5425C71.0223 52.5425 74.3801 55.9003 74.3801 60.0425ZM102.713 67.5425C106.855 67.5425 110.213 64.1847 110.213 60.0425C110.213 55.9003 106.855 52.5425 102.713 52.5425C98.5707 52.5425 95.2129 55.9003 95.2129 60.0425C95.2129 64.1847 98.5707 67.5425 102.713 67.5425ZM146.046 60.0425C146.046 64.1847 142.689 67.5425 138.546 67.5425C134.404 67.5425 131.046 64.1847 131.046 60.0425C131.046 55.9003 134.404 52.5425 138.546 52.5425C142.689 52.5425 146.046 55.9003 146.046 60.0425ZM31.0463 104.66C35.1885 104.66 38.5463 101.303 38.5463 97.1603C38.5463 93.0183 35.1885 89.6603 31.0463 89.6603C26.9043 89.6603 23.5463 93.0183 23.5463 97.1603C23.5463 101.303 26.9043 104.66 31.0463 104.66ZM74.3801 97.1603C74.3801 101.303 71.0223 104.66 66.8801 104.66C62.7379 104.66 59.3801 101.303 59.3801 97.1603C59.3801 93.0183 62.7379 89.6603 66.8801 89.6603C71.0223 89.6603 74.3801 93.0183 74.3801 97.1603ZM31.0463 141.778C35.1885 141.778 38.5463 138.421 38.5463 134.278C38.5463 130.136 35.1885 126.778 31.0463 126.778C26.9043 126.778 23.5463 130.136 23.5463 134.278C23.5463 138.421 26.9043 141.778 31.0463 141.778ZM74.3801 134.278C74.3801 138.421 71.0223 141.778 66.8801 141.778C62.7379 141.778 59.3801 138.421 59.3801 134.278C59.3801 130.136 62.7379 126.778 66.8801 126.778C71.0223 126.778 74.3801 130.136 74.3801 134.278Z" fill="white"/>
<path fill-rule="evenodd" clip-rule="evenodd" d="M125.662 166.778C148.308 166.778 166.667 148.42 166.667 125.774C166.667 103.128 148.308 84.7695 125.662 84.7695C103.016 84.7695 84.6577 103.128 84.6577 125.774C84.6577 148.42 103.016 166.778 125.662 166.778ZM146.496 125.774C146.496 128.075 144.631 129.941 142.33 129.941H125.001C124.942 129.941 124.884 129.939 124.825 129.937C124.767 129.939 124.708 129.941 124.65 129.941C122.348 129.941 120.483 128.075 120.483 125.774V108.445C120.483 106.144 122.348 104.278 124.65 104.278C126.951 104.278 128.816 106.144 128.816 108.445V121.607H142.33C144.631 121.607 146.496 123.473 146.496 125.774Z" fill="white"/>
</svg>
