<svg width="2551" height="450" viewBox="0 0 2551 450" fill="none" xmlns="http://www.w3.org/2000/svg">
<g clip-path="url(#clip0_54_3)">
<path d="M1276 450L1141.15 210.484H-177L-41.8137 450H1276Z" fill="#08283E"/>
<path opacity="0.8" d="M2774 123.387L2538.06 593.088H1058L1292.52 123.387H2774Z" fill="url(#paint0_linear_54_3)"/>
<path d="M1661.24 405V377.48H1664.12V405H1661.24ZM1655.44 380.08V377.48H1663.72V380.08H1655.44ZM1676.75 405V377.48H1679.63V405H1676.75ZM1670.95 380.08V377.48H1679.23V380.08H1670.95ZM1701.02 392.68V390.2H1709.02C1710.83 390.2 1712.22 389.747 1713.18 388.84C1714.14 387.907 1714.62 386.667 1714.62 385.12C1714.62 383.627 1714.14 382.413 1713.18 381.48C1712.22 380.52 1710.83 380.04 1709.02 380.04H1701.02V377.48H1709.02C1710.81 377.48 1712.34 377.813 1713.62 378.48C1714.9 379.12 1715.87 380.013 1716.54 381.16C1717.23 382.307 1717.58 383.613 1717.58 385.08C1717.58 386.6 1717.23 387.933 1716.54 389.08C1715.87 390.227 1714.9 391.12 1713.62 391.76C1712.34 392.373 1710.81 392.68 1709.02 392.68H1701.02ZM1699.14 405V377.48H1702.06V405H1699.14ZM1715.78 405L1705.46 392.28L1708.3 391.36L1719.54 405H1715.78ZM1732.51 405.4C1730.99 405.4 1729.63 405.053 1728.43 404.36C1727.23 403.64 1726.28 402.667 1725.59 401.44C1724.92 400.213 1724.59 398.773 1724.59 397.12V386.2H1727.43V397C1727.43 398.147 1727.63 399.147 1728.03 400C1728.46 400.853 1729.06 401.52 1729.83 402C1730.6 402.48 1731.5 402.72 1732.51 402.72C1734.08 402.72 1735.32 402.2 1736.23 401.16C1737.16 400.12 1737.63 398.733 1737.63 397V386.2H1740.43V397.12C1740.43 398.747 1740.1 400.187 1739.43 401.44C1738.76 402.693 1737.83 403.667 1736.63 404.36C1735.43 405.053 1734.06 405.4 1732.51 405.4ZM1756.34 405.4C1754.44 405.4 1752.75 404.973 1751.26 404.12C1749.76 403.267 1748.58 402.093 1747.7 400.6C1746.84 399.107 1746.42 397.427 1746.42 395.56C1746.42 393.72 1746.84 392.067 1747.7 390.6C1748.55 389.107 1749.71 387.933 1751.18 387.08C1752.64 386.227 1754.28 385.8 1756.1 385.8C1757.8 385.8 1759.31 386.187 1760.62 386.96C1761.95 387.733 1762.99 388.813 1763.74 390.2C1764.51 391.56 1764.9 393.133 1764.9 394.92C1764.9 395.133 1764.88 395.387 1764.86 395.68C1764.83 395.947 1764.78 396.267 1764.7 396.64H1748.42V394.24H1763.18L1762.18 395.12C1762.2 393.733 1761.96 392.547 1761.46 391.56C1760.98 390.547 1760.27 389.773 1759.34 389.24C1758.43 388.68 1757.32 388.4 1756.02 388.4C1754.66 388.4 1753.47 388.693 1752.46 389.28C1751.44 389.867 1750.64 390.693 1750.06 391.76C1749.5 392.8 1749.22 394.04 1749.22 395.48C1749.22 396.92 1749.51 398.187 1750.1 399.28C1750.71 400.373 1751.55 401.227 1752.62 401.84C1753.71 402.453 1754.96 402.76 1756.38 402.76C1757.52 402.76 1758.58 402.56 1759.54 402.16C1760.5 401.733 1761.31 401.107 1761.98 400.28L1763.78 402.12C1762.9 403.16 1761.8 403.973 1760.5 404.56C1759.22 405.12 1757.83 405.4 1756.34 405.4ZM1789.77 405.4C1788.04 405.4 1786.48 404.973 1785.09 404.12C1783.71 403.267 1782.6 402.107 1781.77 400.64C1780.97 399.147 1780.57 397.48 1780.57 395.64C1780.57 393.773 1780.97 392.107 1781.77 390.64C1782.6 389.147 1783.71 387.973 1785.09 387.12C1786.48 386.24 1788.04 385.8 1789.77 385.8C1791.19 385.8 1792.47 386.08 1793.61 386.64C1794.76 387.2 1795.71 388 1796.45 389.04C1797.23 390.053 1797.68 391.253 1797.81 392.64V398.52C1797.65 399.88 1797.2 401.08 1796.45 402.12C1795.73 403.133 1794.8 403.933 1793.65 404.52C1792.51 405.107 1791.21 405.4 1789.77 405.4ZM1790.25 402.72C1791.56 402.72 1792.71 402.427 1793.69 401.84C1794.68 401.227 1795.45 400.387 1796.01 399.32C1796.57 398.227 1796.85 396.987 1796.85 395.6C1796.85 394.187 1796.56 392.947 1795.97 391.88C1795.41 390.813 1794.64 389.973 1793.65 389.36C1792.67 388.747 1791.52 388.44 1790.21 388.44C1788.91 388.44 1787.75 388.747 1786.73 389.36C1785.72 389.973 1784.92 390.827 1784.33 391.92C1783.77 392.987 1783.49 394.213 1783.49 395.6C1783.49 396.987 1783.77 398.227 1784.33 399.32C1784.92 400.387 1785.72 401.227 1786.73 401.84C1787.77 402.427 1788.95 402.72 1790.25 402.72ZM1799.49 405H1796.69V399.96L1797.25 395.32L1796.69 390.8V376.68H1799.49V405ZM1815.85 405.4C1813.96 405.4 1812.27 404.973 1810.77 404.12C1809.28 403.267 1808.09 402.093 1807.21 400.6C1806.36 399.107 1805.93 397.427 1805.93 395.56C1805.93 393.72 1806.36 392.067 1807.21 390.6C1808.07 389.107 1809.23 387.933 1810.69 387.08C1812.16 386.227 1813.8 385.8 1815.61 385.8C1817.32 385.8 1818.83 386.187 1820.13 386.96C1821.47 387.733 1822.51 388.813 1823.25 390.2C1824.03 391.56 1824.41 393.133 1824.41 394.92C1824.41 395.133 1824.4 395.387 1824.37 395.68C1824.35 395.947 1824.29 396.267 1824.21 396.64H1807.93V394.24H1822.69L1821.69 395.12C1821.72 393.733 1821.48 392.547 1820.97 391.56C1820.49 390.547 1819.79 389.773 1818.85 389.24C1817.95 388.68 1816.84 388.4 1815.53 388.4C1814.17 388.4 1812.99 388.693 1811.97 389.28C1810.96 389.867 1810.16 390.693 1809.57 391.76C1809.01 392.8 1808.73 394.04 1808.73 395.48C1808.73 396.92 1809.03 398.187 1809.61 399.28C1810.23 400.373 1811.07 401.227 1812.13 401.84C1813.23 402.453 1814.48 402.76 1815.89 402.76C1817.04 402.76 1818.09 402.56 1819.05 402.16C1820.01 401.733 1820.83 401.107 1821.49 400.28L1823.29 402.12C1822.41 403.16 1821.32 403.973 1820.01 404.56C1818.73 405.12 1817.35 405.4 1815.85 405.4ZM1841.97 405V377.48H1844.05L1855.93 396.96H1854.45L1866.33 377.48H1868.41V405H1865.45V382.6L1866.13 382.76L1856.21 399.04H1854.13L1844.21 382.76L1844.89 382.6V405H1841.97ZM1884.89 405.4C1883.1 405.4 1881.5 404.973 1880.09 404.12C1878.67 403.24 1877.55 402.067 1876.73 400.6C1875.93 399.133 1875.53 397.48 1875.53 395.64C1875.53 393.773 1875.93 392.107 1876.73 390.64C1877.55 389.147 1878.67 387.973 1880.09 387.12C1881.5 386.24 1883.09 385.8 1884.85 385.8C1886.29 385.8 1887.57 386.093 1888.69 386.68C1889.83 387.24 1890.75 388.04 1891.45 389.08C1892.17 390.093 1892.61 391.28 1892.77 392.64V398.52C1892.61 399.88 1892.17 401.08 1891.45 402.12C1890.75 403.16 1889.83 403.973 1888.69 404.56C1887.57 405.12 1886.3 405.4 1884.89 405.4ZM1885.33 402.72C1887.27 402.72 1888.83 402.067 1890.01 400.76C1891.21 399.453 1891.81 397.733 1891.81 395.6C1891.81 394.187 1891.53 392.947 1890.97 391.88C1890.43 390.787 1889.67 389.947 1888.69 389.36C1887.73 388.747 1886.59 388.44 1885.29 388.44C1883.95 388.44 1882.77 388.747 1881.73 389.36C1880.71 389.973 1879.9 390.827 1879.29 391.92C1878.7 392.987 1878.41 394.213 1878.41 395.6C1878.41 396.987 1878.7 398.213 1879.29 399.28C1879.9 400.347 1880.73 401.187 1881.77 401.8C1882.81 402.413 1883.99 402.72 1885.33 402.72ZM1891.65 405V399.96L1892.21 395.32L1891.65 390.8V386.2H1894.45V405H1891.65ZM1909.89 413.32C1907.99 413.32 1906.3 412.96 1904.81 412.24C1903.34 411.547 1902.15 410.56 1901.25 409.28L1903.09 407.44C1903.83 408.453 1904.78 409.24 1905.93 409.8C1907.07 410.36 1908.42 410.64 1909.97 410.64C1912.1 410.64 1913.79 410.067 1915.05 408.92C1916.33 407.773 1916.97 406.213 1916.97 404.24V399.56L1917.53 395.28L1916.97 391.04V386.2H1919.77V404.24C1919.77 406.053 1919.35 407.64 1918.53 409C1917.7 410.36 1916.54 411.413 1915.05 412.16C1913.58 412.933 1911.86 413.32 1909.89 413.32ZM1910.09 404.8C1908.35 404.8 1906.79 404.387 1905.41 403.56C1904.02 402.733 1902.93 401.6 1902.13 400.16C1901.33 398.72 1900.93 397.093 1900.93 395.28C1900.93 393.467 1901.31 391.853 1902.09 390.44C1902.89 389 1903.98 387.867 1905.37 387.04C1906.75 386.213 1908.31 385.8 1910.05 385.8C1911.51 385.8 1912.82 386.08 1913.97 386.64C1915.14 387.2 1916.07 388 1916.77 389.04C1917.49 390.053 1917.93 391.253 1918.09 392.64V397.96C1917.93 399.32 1917.49 400.52 1916.77 401.56C1916.05 402.573 1915.11 403.373 1913.97 403.96C1912.82 404.52 1911.53 404.8 1910.09 404.8ZM1910.61 402.12C1911.91 402.12 1913.05 401.84 1914.01 401.28C1914.99 400.72 1915.75 399.933 1916.29 398.92C1916.85 397.88 1917.13 396.667 1917.13 395.28C1917.13 393.92 1916.85 392.733 1916.29 391.72C1915.75 390.707 1914.99 389.907 1914.01 389.32C1913.02 388.733 1911.87 388.44 1910.57 388.44C1909.26 388.44 1908.09 388.733 1907.05 389.32C1906.03 389.907 1905.23 390.707 1904.65 391.72C1904.09 392.733 1903.81 393.92 1903.81 395.28C1903.81 396.613 1904.1 397.8 1904.69 398.84C1905.27 399.88 1906.07 400.693 1907.09 401.28C1908.1 401.84 1909.27 402.12 1910.61 402.12ZM1935.41 405.4C1933.67 405.4 1932.11 404.973 1930.73 404.12C1929.34 403.267 1928.23 402.107 1927.41 400.64C1926.61 399.147 1926.21 397.48 1926.21 395.64C1926.21 393.773 1926.61 392.107 1927.41 390.64C1928.23 389.147 1929.34 387.973 1930.73 387.12C1932.11 386.24 1933.67 385.8 1935.41 385.8C1936.82 385.8 1938.1 386.08 1939.25 386.64C1940.39 387.2 1941.34 388 1942.09 389.04C1942.86 390.053 1943.31 391.253 1943.45 392.64V398.52C1943.29 399.88 1942.83 401.08 1942.09 402.12C1941.37 403.133 1940.43 403.933 1939.29 404.52C1938.14 405.107 1936.85 405.4 1935.41 405.4ZM1935.89 402.72C1937.19 402.72 1938.34 402.427 1939.33 401.84C1940.31 401.227 1941.09 400.387 1941.65 399.32C1942.21 398.227 1942.49 396.987 1942.49 395.6C1942.49 394.187 1942.19 392.947 1941.61 391.88C1941.05 390.813 1940.27 389.973 1939.29 389.36C1938.3 388.747 1937.15 388.44 1935.85 388.44C1934.54 388.44 1933.38 388.747 1932.37 389.36C1931.35 389.973 1930.55 390.827 1929.97 391.92C1929.41 392.987 1929.13 394.213 1929.13 395.6C1929.13 396.987 1929.41 398.227 1929.97 399.32C1930.55 400.387 1931.35 401.227 1932.37 401.84C1933.41 402.427 1934.58 402.72 1935.89 402.72ZM1945.13 405H1942.33V399.96L1942.89 395.32L1942.33 390.8V376.68H1945.13V405ZM1961.48 405.4C1959.59 405.4 1957.9 404.973 1956.4 404.12C1954.91 403.267 1953.72 402.093 1952.84 400.6C1951.99 399.107 1951.56 397.427 1951.56 395.56C1951.56 393.72 1951.99 392.067 1952.84 390.6C1953.7 389.107 1954.86 387.933 1956.32 387.08C1957.79 386.227 1959.43 385.8 1961.24 385.8C1962.95 385.8 1964.46 386.187 1965.76 386.96C1967.1 387.733 1968.14 388.813 1968.88 390.2C1969.66 391.56 1970.04 393.133 1970.04 394.92C1970.04 395.133 1970.03 395.387 1970 395.68C1969.98 395.947 1969.92 396.267 1969.84 396.64H1953.56V394.24H1968.32L1967.32 395.12C1967.35 393.733 1967.11 392.547 1966.6 391.56C1966.12 390.547 1965.42 389.773 1964.48 389.24C1963.58 388.68 1962.47 388.4 1961.16 388.4C1959.8 388.4 1958.62 388.693 1957.6 389.28C1956.59 389.867 1955.79 390.693 1955.2 391.76C1954.64 392.8 1954.36 394.04 1954.36 395.48C1954.36 396.92 1954.66 398.187 1955.24 399.28C1955.86 400.373 1956.7 401.227 1957.76 401.84C1958.86 402.453 1960.11 402.76 1961.52 402.76C1962.67 402.76 1963.72 402.56 1964.68 402.16C1965.64 401.733 1966.46 401.107 1967.12 400.28L1968.92 402.12C1968.04 403.16 1966.95 403.973 1965.64 404.56C1964.36 405.12 1962.98 405.4 1961.48 405.4ZM1986.05 405.4C1984.61 405.4 1983.31 405.107 1982.17 404.52C1981.02 403.933 1980.07 403.133 1979.33 402.12C1978.61 401.08 1978.17 399.88 1978.01 398.52V392.64C1978.17 391.253 1978.62 390.053 1979.37 389.04C1980.11 388 1981.06 387.2 1982.21 386.64C1983.38 386.08 1984.66 385.8 1986.05 385.8C1987.78 385.8 1989.34 386.24 1990.73 387.12C1992.11 387.973 1993.21 389.147 1994.01 390.64C1994.83 392.107 1995.25 393.773 1995.25 395.64C1995.25 397.48 1994.85 399.133 1994.05 400.6C1993.25 402.067 1992.14 403.24 1990.73 404.12C1989.34 404.973 1987.78 405.4 1986.05 405.4ZM1985.57 402.72C1986.9 402.72 1988.07 402.427 1989.09 401.84C1990.1 401.227 1990.89 400.387 1991.45 399.32C1992.03 398.227 1992.33 396.987 1992.33 395.6C1992.33 394.187 1992.03 392.947 1991.45 391.88C1990.89 390.813 1990.1 389.973 1989.09 389.36C1988.07 388.747 1986.91 388.44 1985.61 388.44C1984.3 388.44 1983.14 388.747 1982.13 389.36C1981.14 389.973 1980.37 390.813 1979.81 391.88C1979.25 392.947 1978.97 394.187 1978.97 395.6C1978.97 396.987 1979.25 398.227 1979.81 399.32C1980.37 400.387 1981.14 401.227 1982.13 401.84C1983.11 402.427 1984.26 402.72 1985.57 402.72ZM1976.33 405V376.68H1979.13V390.8L1978.57 395.32L1979.13 399.96V405H1976.33ZM2010.25 405.4C2008.43 405.4 2006.78 404.96 2005.29 404.08C2003.82 403.2 2002.65 402.013 2001.77 400.52C2000.91 399.027 2000.49 397.36 2000.49 395.52C2000.49 393.707 2000.91 392.067 2001.77 390.6C2002.65 389.133 2003.82 387.973 2005.29 387.12C2006.78 386.24 2008.43 385.8 2010.25 385.8C2012.09 385.8 2013.74 386.227 2015.21 387.08C2016.67 387.933 2017.83 389.107 2018.69 390.6C2019.57 392.067 2020.01 393.707 2020.01 395.52C2020.01 397.387 2019.57 399.067 2018.69 400.56C2017.83 402.027 2016.67 403.2 2015.21 404.08C2013.74 404.96 2012.09 405.4 2010.25 405.4ZM2010.25 402.68C2011.58 402.68 2012.75 402.373 2013.77 401.76C2014.81 401.147 2015.62 400.293 2016.21 399.2C2016.82 398.107 2017.13 396.88 2017.13 395.52C2017.13 394.16 2016.82 392.96 2016.21 391.92C2015.62 390.853 2014.81 390.013 2013.77 389.4C2012.75 388.787 2011.58 388.48 2010.25 388.48C2008.94 388.48 2007.77 388.787 2006.73 389.4C2005.69 390.013 2004.87 390.853 2004.29 391.92C2003.7 392.96 2003.41 394.16 2003.41 395.52C2003.41 396.907 2003.7 398.147 2004.29 399.24C2004.87 400.307 2005.69 401.147 2006.73 401.76C2007.77 402.373 2008.94 402.68 2010.25 402.68ZM2033.9 405.4C2032.38 405.4 2031.02 405.053 2029.82 404.36C2028.62 403.64 2027.67 402.667 2026.98 401.44C2026.31 400.213 2025.98 398.773 2025.98 397.12V386.2H2028.82V397C2028.82 398.147 2029.02 399.147 2029.42 400C2029.85 400.853 2030.45 401.52 2031.22 402C2031.99 402.48 2032.89 402.72 2033.9 402.72C2035.47 402.72 2036.71 402.2 2037.62 401.16C2038.55 400.12 2039.02 398.733 2039.02 397V386.2H2041.82V397.12C2041.82 398.747 2041.49 400.187 2040.82 401.44C2040.15 402.693 2039.22 403.667 2038.02 404.36C2036.82 405.053 2035.45 405.4 2033.9 405.4ZM2049.05 405V386.2H2051.85V405H2049.05ZM2051.85 394.04L2050.69 393.52C2050.69 391.147 2051.26 389.267 2052.41 387.88C2053.58 386.493 2055.18 385.8 2057.21 385.8C2058.14 385.8 2058.99 385.973 2059.77 386.32C2060.54 386.64 2061.26 387.16 2061.93 387.88L2060.09 389.84C2059.63 389.333 2059.13 388.973 2058.57 388.76C2058.03 388.547 2057.42 388.44 2056.73 388.44C2055.29 388.44 2054.11 388.92 2053.21 389.88C2052.3 390.813 2051.85 392.2 2051.85 394.04ZM2074 413.32C2072.11 413.32 2070.42 412.96 2068.92 412.24C2067.46 411.547 2066.27 410.56 2065.36 409.28L2067.2 407.44C2067.95 408.453 2068.9 409.24 2070.04 409.8C2071.19 410.36 2072.54 410.64 2074.08 410.64C2076.22 410.64 2077.91 410.067 2079.16 408.92C2080.44 407.773 2081.08 406.213 2081.08 404.24V399.56L2081.64 395.28L2081.08 391.04V386.2H2083.88V404.24C2083.88 406.053 2083.47 407.64 2082.64 409C2081.82 410.36 2080.66 411.413 2079.16 412.16C2077.7 412.933 2075.98 413.32 2074 413.32ZM2074.2 404.8C2072.47 404.8 2070.91 404.387 2069.52 403.56C2068.14 402.733 2067.04 401.6 2066.24 400.16C2065.44 398.72 2065.04 397.093 2065.04 395.28C2065.04 393.467 2065.43 391.853 2066.2 390.44C2067 389 2068.1 387.867 2069.48 387.04C2070.87 386.213 2072.43 385.8 2074.16 385.8C2075.63 385.8 2076.94 386.08 2078.08 386.64C2079.26 387.2 2080.19 388 2080.88 389.04C2081.6 390.053 2082.04 391.253 2082.2 392.64V397.96C2082.04 399.32 2081.6 400.52 2080.88 401.56C2080.16 402.573 2079.23 403.373 2078.08 403.96C2076.94 404.52 2075.64 404.8 2074.2 404.8ZM2074.72 402.12C2076.03 402.12 2077.16 401.84 2078.12 401.28C2079.11 400.72 2079.87 399.933 2080.4 398.92C2080.96 397.88 2081.24 396.667 2081.24 395.28C2081.24 393.92 2080.96 392.733 2080.4 391.72C2079.87 390.707 2079.11 389.907 2078.12 389.32C2077.14 388.733 2075.99 388.44 2074.68 388.44C2073.38 388.44 2072.2 388.733 2071.16 389.32C2070.15 389.907 2069.35 390.707 2068.76 391.72C2068.2 392.733 2067.92 393.92 2067.92 395.28C2067.92 396.613 2068.22 397.8 2068.8 398.84C2069.39 399.88 2070.19 400.693 2071.2 401.28C2072.22 401.84 2073.39 402.12 2074.72 402.12ZM2091.92 409.12L2094.2 404.68L2095.2 404.44C2095.1 404.68 2094.95 404.88 2094.76 405.04C2094.58 405.227 2094.35 405.32 2094.08 405.32C2093.58 405.32 2093.11 405.12 2092.68 404.72C2092.28 404.293 2092.08 403.773 2092.08 403.16C2092.08 402.52 2092.31 401.973 2092.76 401.52C2093.22 401.04 2093.76 400.8 2094.4 400.8C2095.02 400.8 2095.55 401.04 2096 401.52C2096.48 401.973 2096.72 402.52 2096.72 403.16C2096.72 403.427 2096.67 403.747 2096.56 404.12C2096.48 404.467 2096.3 404.933 2096 405.52L2093.6 410.04L2091.92 409.12ZM2118.45 405L2129.01 379.12L2131.85 379.32L2121.49 405H2118.45ZM2113.69 380.08V377.48H2131.85V379.32L2130.57 380.08H2113.69ZM2145.31 405.4C2143.49 405.4 2141.87 405.053 2140.43 404.36C2138.99 403.667 2137.77 402.667 2136.79 401.36L2138.75 399.4C2139.41 400.413 2140.31 401.213 2141.43 401.8C2142.57 402.36 2143.85 402.64 2145.27 402.64C2146.6 402.64 2147.77 402.387 2148.79 401.88C2149.8 401.347 2150.59 400.613 2151.15 399.68C2151.73 398.72 2152.03 397.6 2152.03 396.32C2152.03 395.013 2151.75 393.893 2151.19 392.96C2150.63 392 2149.87 391.267 2148.91 390.76C2147.95 390.253 2146.87 390 2145.67 390C2144.52 390 2143.47 390.16 2142.51 390.48C2141.57 390.773 2140.72 391.253 2139.95 391.92L2139.87 390C2140.35 389.467 2140.89 389.027 2141.51 388.68C2142.12 388.333 2142.8 388.067 2143.55 387.88C2144.32 387.693 2145.17 387.6 2146.11 387.6C2147.95 387.6 2149.53 388 2150.87 388.8C2152.2 389.573 2153.21 390.627 2153.91 391.96C2154.63 393.293 2154.99 394.8 2154.99 396.48C2154.99 398.213 2154.57 399.747 2153.75 401.08C2152.92 402.413 2151.77 403.467 2150.31 404.24C2148.87 405.013 2147.2 405.4 2145.31 405.4ZM2139.95 391.92L2138.39 390.32L2139.59 377.48H2142.27L2140.95 390.6L2139.95 391.92ZM2140.31 380.08L2139.59 377.48H2153.75V380.08H2140.31ZM2166.15 405V377.48H2169.03V405H2166.15ZM2160.35 380.08V377.48H2168.63V380.08H2160.35ZM2181.67 405V377.48H2184.55V405H2181.67ZM2175.87 380.08V377.48H2184.15V380.08H2175.87ZM2201.22 405.4C2199.46 405.4 2197.86 404.987 2196.42 404.16C2195.01 403.307 2193.87 402.173 2193.02 400.76C2192.19 399.347 2191.78 397.773 2191.78 396.04C2191.78 393.693 2192.59 391.4 2194.22 389.16L2202.86 377.48H2206.3L2197.74 388.8L2196.7 389.2C2197.07 388.72 2197.5 388.32 2197.98 388C2198.49 387.653 2199.06 387.387 2199.7 387.2C2200.34 387.013 2201.07 386.92 2201.9 386.92C2203.53 386.92 2205.01 387.32 2206.34 388.12C2207.67 388.893 2208.74 389.96 2209.54 391.32C2210.34 392.68 2210.74 394.227 2210.74 395.96C2210.74 397.693 2210.31 399.28 2209.46 400.72C2208.61 402.133 2207.46 403.267 2206.02 404.12C2204.58 404.973 2202.98 405.4 2201.22 405.4ZM2201.26 402.68C2202.46 402.68 2203.55 402.387 2204.54 401.8C2205.55 401.187 2206.35 400.373 2206.94 399.36C2207.53 398.32 2207.82 397.187 2207.82 395.96C2207.82 394.707 2207.53 393.573 2206.94 392.56C2206.35 391.547 2205.55 390.747 2204.54 390.16C2203.55 389.547 2202.46 389.24 2201.26 389.24C2200.03 389.24 2198.91 389.547 2197.9 390.16C2196.91 390.747 2196.13 391.547 2195.54 392.56C2194.98 393.547 2194.7 394.68 2194.7 395.96C2194.7 397.213 2194.98 398.36 2195.54 399.4C2196.13 400.413 2196.91 401.213 2197.9 401.8C2198.91 402.387 2200.03 402.68 2201.26 402.68ZM2230.55 393.96V391.36H2238.67C2239.79 391.36 2240.79 391.133 2241.67 390.68C2242.58 390.227 2243.29 389.587 2243.79 388.76C2244.33 387.907 2244.59 386.893 2244.59 385.72C2244.59 384.547 2244.33 383.547 2243.79 382.72C2243.29 381.867 2242.58 381.213 2241.67 380.76C2240.79 380.28 2239.79 380.04 2238.67 380.04H2230.55V377.48H2238.87C2240.53 377.48 2242.01 377.827 2243.31 378.52C2244.62 379.187 2245.65 380.133 2246.39 381.36C2247.17 382.587 2247.55 384.04 2247.55 385.72C2247.55 387.373 2247.17 388.827 2246.39 390.08C2245.65 391.307 2244.62 392.267 2243.31 392.96C2242.01 393.627 2240.53 393.96 2238.87 393.96H2230.55ZM2228.67 405V377.48H2231.59V405H2228.67ZM2261.28 405.4C2259.49 405.4 2257.89 404.973 2256.48 404.12C2255.06 403.24 2253.94 402.067 2253.12 400.6C2252.32 399.133 2251.92 397.48 2251.92 395.64C2251.92 393.773 2252.32 392.107 2253.12 390.64C2253.94 389.147 2255.06 387.973 2256.48 387.12C2257.89 386.24 2259.48 385.8 2261.24 385.8C2262.68 385.8 2263.96 386.093 2265.08 386.68C2266.22 387.24 2267.14 388.04 2267.84 389.08C2268.56 390.093 2269 391.28 2269.16 392.64V398.52C2269 399.88 2268.56 401.08 2267.84 402.12C2267.14 403.16 2266.22 403.973 2265.08 404.56C2263.96 405.12 2262.69 405.4 2261.28 405.4ZM2261.72 402.72C2263.66 402.72 2265.22 402.067 2266.4 400.76C2267.6 399.453 2268.2 397.733 2268.2 395.6C2268.2 394.187 2267.92 392.947 2267.36 391.88C2266.82 390.787 2266.06 389.947 2265.08 389.36C2264.12 388.747 2262.98 388.44 2261.68 388.44C2260.34 388.44 2259.16 388.747 2258.12 389.36C2257.1 389.973 2256.29 390.827 2255.68 391.92C2255.09 392.987 2254.8 394.213 2254.8 395.6C2254.8 396.987 2255.09 398.213 2255.68 399.28C2256.29 400.347 2257.12 401.187 2258.16 401.8C2259.2 402.413 2260.38 402.72 2261.72 402.72ZM2268.04 405V399.96L2268.6 395.32L2268.04 390.8V386.2H2270.84V405H2268.04ZM2278.52 405V386.2H2281.32V405H2278.52ZM2281.32 394.04L2280.16 393.52C2280.16 391.147 2280.73 389.267 2281.88 387.88C2283.05 386.493 2284.65 385.8 2286.68 385.8C2287.61 385.8 2288.46 385.973 2289.24 386.32C2290.01 386.64 2290.73 387.16 2291.4 387.88L2289.56 389.84C2289.1 389.333 2288.6 388.973 2288.04 388.76C2287.5 388.547 2286.89 388.44 2286.2 388.44C2284.76 388.44 2283.58 388.92 2282.68 389.88C2281.77 390.813 2281.32 392.2 2281.32 394.04ZM2296.38 405V386.2H2299.22V405H2296.38ZM2297.78 382.12C2297.24 382.12 2296.79 381.933 2296.42 381.56C2296.04 381.16 2295.86 380.693 2295.86 380.16C2295.86 379.6 2296.04 379.133 2296.42 378.76C2296.79 378.387 2297.24 378.2 2297.78 378.2C2298.36 378.2 2298.83 378.387 2299.18 378.76C2299.55 379.133 2299.74 379.6 2299.74 380.16C2299.74 380.693 2299.55 381.16 2299.18 381.56C2298.83 381.933 2298.36 382.12 2297.78 382.12ZM2312.65 405.4C2311.64 405.4 2310.66 405.267 2309.73 405C2308.8 404.707 2307.94 404.307 2307.17 403.8C2306.42 403.293 2305.77 402.693 2305.21 402L2307.01 400.16C2307.76 401.067 2308.6 401.747 2309.53 402.2C2310.49 402.627 2311.56 402.84 2312.73 402.84C2313.98 402.84 2314.96 402.6 2315.65 402.12C2316.37 401.64 2316.73 400.973 2316.73 400.12C2316.73 399.32 2316.48 398.693 2315.97 398.24C2315.46 397.787 2314.81 397.427 2314.01 397.16C2313.24 396.893 2312.41 396.64 2311.53 396.4C2310.65 396.133 2309.81 395.813 2309.01 395.44C2308.21 395.04 2307.56 394.493 2307.05 393.8C2306.57 393.107 2306.33 392.2 2306.33 391.08C2306.33 390.013 2306.58 389.093 2307.09 388.32C2307.62 387.52 2308.37 386.907 2309.33 386.48C2310.32 386.027 2311.48 385.8 2312.81 385.8C2314.22 385.8 2315.5 386.053 2316.65 386.56C2317.8 387.067 2318.72 387.813 2319.41 388.8L2317.61 390.6C2317.05 389.88 2316.34 389.333 2315.49 388.96C2314.66 388.56 2313.73 388.36 2312.69 388.36C2311.49 388.36 2310.57 388.6 2309.93 389.08C2309.32 389.533 2309.01 390.133 2309.01 390.88C2309.01 391.6 2309.26 392.173 2309.77 392.6C2310.28 393 2310.92 393.333 2311.69 393.6C2312.49 393.84 2313.33 394.093 2314.21 394.36C2315.09 394.6 2315.93 394.933 2316.73 395.36C2317.53 395.76 2318.17 396.32 2318.65 397.04C2319.16 397.733 2319.41 398.68 2319.41 399.88C2319.41 401.56 2318.8 402.907 2317.57 403.92C2316.37 404.907 2314.73 405.4 2312.65 405.4Z" fill="white"/>
<line x1="136" y1="382.012" x2="136" y2="277" stroke="white" stroke-width="10"/>
<path d="M2127.84 284V265.2H2130.64V284H2127.84ZM2140.76 284V272.48C2140.76 270.933 2140.29 269.707 2139.36 268.8C2138.43 267.867 2137.25 267.4 2135.84 267.4C2134.88 267.4 2134 267.613 2133.2 268.04C2132.43 268.44 2131.8 269.013 2131.32 269.76C2130.87 270.507 2130.64 271.4 2130.64 272.44L2129.36 271.92C2129.36 270.48 2129.68 269.227 2130.32 268.16C2130.96 267.093 2131.81 266.267 2132.88 265.68C2133.97 265.093 2135.2 264.8 2136.56 264.8C2137.89 264.8 2139.08 265.093 2140.12 265.68C2141.19 266.267 2142.03 267.093 2142.64 268.16C2143.28 269.227 2143.6 270.493 2143.6 271.96V284H2140.76ZM2153.72 284V272.48C2153.72 270.933 2153.25 269.707 2152.32 268.8C2151.39 267.867 2150.2 267.4 2148.76 267.4C2147.83 267.4 2146.96 267.613 2146.16 268.04C2145.39 268.44 2144.76 269.013 2144.28 269.76C2143.83 270.507 2143.6 271.4 2143.6 272.44L2141.92 271.92C2142 270.48 2142.37 269.227 2143.04 268.16C2143.73 267.093 2144.63 266.267 2145.72 265.68C2146.84 265.093 2148.07 264.8 2149.4 264.8C2150.73 264.8 2151.93 265.093 2153 265.68C2154.09 266.267 2154.95 267.093 2155.56 268.16C2156.2 269.227 2156.52 270.493 2156.52 271.96V284H2153.72ZM2171.95 284.4C2170.16 284.4 2168.56 283.973 2167.15 283.12C2165.73 282.24 2164.61 281.067 2163.79 279.6C2162.99 278.133 2162.59 276.48 2162.59 274.64C2162.59 272.773 2162.99 271.107 2163.79 269.64C2164.61 268.147 2165.73 266.973 2167.15 266.12C2168.56 265.24 2170.15 264.8 2171.91 264.8C2173.35 264.8 2174.63 265.093 2175.75 265.68C2176.89 266.24 2177.81 267.04 2178.51 268.08C2179.23 269.093 2179.67 270.28 2179.83 271.64V277.52C2179.67 278.88 2179.23 280.08 2178.51 281.12C2177.81 282.16 2176.89 282.973 2175.75 283.56C2174.63 284.12 2173.36 284.4 2171.95 284.4ZM2172.39 281.72C2174.33 281.72 2175.89 281.067 2177.07 279.76C2178.27 278.453 2178.87 276.733 2178.87 274.6C2178.87 273.187 2178.59 271.947 2178.03 270.88C2177.49 269.787 2176.73 268.947 2175.75 268.36C2174.79 267.747 2173.65 267.44 2172.35 267.44C2171.01 267.44 2169.83 267.747 2168.79 268.36C2167.77 268.973 2166.96 269.827 2166.35 270.92C2165.76 271.987 2165.47 273.213 2165.47 274.6C2165.47 275.987 2165.76 277.213 2166.35 278.28C2166.96 279.347 2167.79 280.187 2168.83 280.8C2169.87 281.413 2171.05 281.72 2172.39 281.72ZM2178.71 284V278.96L2179.27 274.32L2178.71 269.8V265.2H2181.51V284H2178.71ZM2189.18 284V265.2H2192.02V284H2189.18ZM2190.58 261.12C2190.05 261.12 2189.6 260.933 2189.22 260.56C2188.85 260.16 2188.66 259.693 2188.66 259.16C2188.66 258.6 2188.85 258.133 2189.22 257.76C2189.6 257.387 2190.05 257.2 2190.58 257.2C2191.17 257.2 2191.64 257.387 2191.98 257.76C2192.36 258.133 2192.54 258.6 2192.54 259.16C2192.54 259.693 2192.36 260.16 2191.98 260.56C2191.64 260.933 2191.17 261.12 2190.58 261.12ZM2199.7 284V255.68H2202.5V284H2199.7ZM2222.02 280.32C2221 280.32 2220.07 280.067 2219.22 279.56C2218.36 279.053 2217.68 278.36 2217.18 277.48C2216.7 276.6 2216.46 275.627 2216.46 274.56C2216.46 273.44 2216.7 272.44 2217.18 271.56C2217.68 270.68 2218.36 269.987 2219.22 269.48C2220.07 268.947 2221 268.68 2222.02 268.68C2223.35 268.68 2224.43 269.027 2225.26 269.72C2226.11 270.387 2226.54 271.28 2226.54 272.4V276.64C2226.54 277.733 2226.12 278.627 2225.3 279.32C2224.47 279.987 2223.38 280.32 2222.02 280.32ZM2222.14 278.32C2223.23 278.32 2224.1 277.973 2224.74 277.28C2225.38 276.56 2225.7 275.64 2225.7 274.52C2225.7 273.347 2225.38 272.427 2224.74 271.76C2224.1 271.067 2223.24 270.72 2222.18 270.72C2221.16 270.72 2220.31 271.067 2219.62 271.76C2218.95 272.453 2218.62 273.373 2218.62 274.52C2218.62 275.64 2218.95 276.56 2219.62 277.28C2220.31 277.973 2221.15 278.32 2222.14 278.32ZM2225.78 280V277.12L2226.18 274.36L2225.78 271.68V268.92H2227.94V280H2225.78ZM2229.7 282.8L2231.34 284.4C2230.16 285.413 2228.86 286.173 2227.42 286.68C2225.98 287.213 2224.42 287.48 2222.74 287.48C2220.95 287.48 2219.27 287.147 2217.7 286.48C2216.15 285.84 2214.79 284.933 2213.62 283.76C2212.44 282.587 2211.52 281.213 2210.86 279.64C2210.22 278.067 2209.9 276.373 2209.9 274.56C2209.9 272.693 2210.23 270.973 2210.9 269.4C2211.56 267.827 2212.5 266.453 2213.7 265.28C2214.9 264.107 2216.28 263.2 2217.86 262.56C2219.46 261.893 2221.16 261.56 2222.98 261.56C2225.4 261.56 2227.54 262.107 2229.38 263.2C2231.24 264.293 2232.7 265.813 2233.74 267.76C2234.8 269.68 2235.34 271.907 2235.34 274.44C2235.34 275.56 2235.22 276.573 2234.98 277.48C2234.76 278.36 2234.42 279.2 2233.94 280L2231.5 279.76C2231.87 279.253 2232.16 278.747 2232.38 278.24C2232.59 277.733 2232.74 277.16 2232.82 276.52C2232.92 275.88 2232.98 275.12 2232.98 274.24C2232.98 272.08 2232.56 270.227 2231.74 268.68C2230.94 267.107 2229.78 265.907 2228.26 265.08C2226.76 264.227 2225.02 263.8 2223.02 263.8C2220.96 263.8 2219.14 264.253 2217.54 265.16C2215.94 266.04 2214.67 267.293 2213.74 268.92C2212.83 270.52 2212.38 272.413 2212.38 274.6C2212.38 276.707 2212.82 278.56 2213.7 280.16C2214.6 281.76 2215.83 283 2217.38 283.88C2218.92 284.76 2220.68 285.2 2222.66 285.2C2224.15 285.2 2225.47 285 2226.62 284.6C2227.79 284.2 2228.82 283.6 2229.7 282.8ZM2226.62 278.04H2233.94V280H2226.62V278.04ZM2256.4 284V272.96C2256.4 271.307 2255.91 269.973 2254.92 268.96C2253.96 267.92 2252.68 267.4 2251.08 267.4C2249.99 267.4 2249.03 267.64 2248.2 268.12C2247.38 268.6 2246.72 269.253 2246.24 270.08C2245.76 270.907 2245.52 271.853 2245.52 272.92L2244.24 272.2C2244.24 270.787 2244.58 269.52 2245.24 268.4C2245.91 267.28 2246.8 266.4 2247.92 265.76C2249.07 265.12 2250.38 264.8 2251.84 264.8C2253.28 264.8 2254.56 265.147 2255.68 265.84C2256.8 266.533 2257.67 267.467 2258.28 268.64C2258.92 269.813 2259.24 271.093 2259.24 272.48V284H2256.4ZM2242.72 284V265.2H2245.52V284H2242.72ZM2274.64 284.4C2272.85 284.4 2271.25 283.973 2269.84 283.12C2268.43 282.24 2267.31 281.067 2266.48 279.6C2265.68 278.133 2265.28 276.48 2265.28 274.64C2265.28 272.773 2265.68 271.107 2266.48 269.64C2267.31 268.147 2268.43 266.973 2269.84 266.12C2271.25 265.24 2272.84 264.8 2274.6 264.8C2276.04 264.8 2277.32 265.093 2278.44 265.68C2279.59 266.24 2280.51 267.04 2281.2 268.08C2281.92 269.093 2282.36 270.28 2282.52 271.64V277.52C2282.36 278.88 2281.92 280.08 2281.2 281.12C2280.51 282.16 2279.59 282.973 2278.44 283.56C2277.32 284.12 2276.05 284.4 2274.64 284.4ZM2275.08 281.72C2277.03 281.72 2278.59 281.067 2279.76 279.76C2280.96 278.453 2281.56 276.733 2281.56 274.6C2281.56 273.187 2281.28 271.947 2280.72 270.88C2280.19 269.787 2279.43 268.947 2278.44 268.36C2277.48 267.747 2276.35 267.44 2275.04 267.44C2273.71 267.44 2272.52 267.747 2271.48 268.36C2270.47 268.973 2269.65 269.827 2269.04 270.92C2268.45 271.987 2268.16 273.213 2268.16 274.6C2268.16 275.987 2268.45 277.213 2269.04 278.28C2269.65 279.347 2270.48 280.187 2271.52 280.8C2272.56 281.413 2273.75 281.72 2275.08 281.72ZM2281.4 284V278.96L2281.96 274.32L2281.4 269.8V265.2H2284.2V284H2281.4ZM2298.44 284L2289.76 265.2H2292.88L2300.2 281.64H2298.44L2305.8 265.2H2308.84L2300.08 284H2298.44ZM2314.35 284V265.2H2317.19V284H2314.35ZM2315.75 261.12C2315.21 261.12 2314.76 260.933 2314.39 260.56C2314.01 260.16 2313.83 259.693 2313.83 259.16C2313.83 258.6 2314.01 258.133 2314.39 257.76C2314.76 257.387 2315.21 257.2 2315.75 257.2C2316.33 257.2 2316.8 257.387 2317.15 257.76C2317.52 258.133 2317.71 258.6 2317.71 259.16C2317.71 259.693 2317.52 260.16 2317.15 260.56C2316.8 260.933 2316.33 261.12 2315.75 261.12ZM2332.62 292.32C2330.73 292.32 2329.04 291.96 2327.54 291.24C2326.08 290.547 2324.89 289.56 2323.98 288.28L2325.82 286.44C2326.57 287.453 2327.52 288.24 2328.66 288.8C2329.81 289.36 2331.16 289.64 2332.7 289.64C2334.84 289.64 2336.53 289.067 2337.78 287.92C2339.06 286.773 2339.7 285.213 2339.7 283.24V278.56L2340.26 274.28L2339.7 270.04V265.2H2342.5V283.24C2342.5 285.053 2342.09 286.64 2341.26 288C2340.44 289.36 2339.28 290.413 2337.78 291.16C2336.32 291.933 2334.6 292.32 2332.62 292.32ZM2332.82 283.8C2331.09 283.8 2329.53 283.387 2328.14 282.56C2326.76 281.733 2325.66 280.6 2324.86 279.16C2324.06 277.72 2323.66 276.093 2323.66 274.28C2323.66 272.467 2324.05 270.853 2324.82 269.44C2325.62 268 2326.72 266.867 2328.1 266.04C2329.49 265.213 2331.05 264.8 2332.78 264.8C2334.25 264.8 2335.56 265.08 2336.7 265.64C2337.88 266.2 2338.81 267 2339.5 268.04C2340.22 269.053 2340.66 270.253 2340.82 271.64V276.96C2340.66 278.32 2340.22 279.52 2339.5 280.56C2338.78 281.573 2337.85 282.373 2336.7 282.96C2335.56 283.52 2334.26 283.8 2332.82 283.8ZM2333.34 281.12C2334.65 281.12 2335.78 280.84 2336.74 280.28C2337.73 279.72 2338.49 278.933 2339.02 277.92C2339.58 276.88 2339.86 275.667 2339.86 274.28C2339.86 272.92 2339.58 271.733 2339.02 270.72C2338.49 269.707 2337.73 268.907 2336.74 268.32C2335.76 267.733 2334.61 267.44 2333.3 267.44C2332 267.44 2330.82 267.733 2329.78 268.32C2328.77 268.907 2327.97 269.707 2327.38 270.72C2326.82 271.733 2326.54 272.92 2326.54 274.28C2326.54 275.613 2326.84 276.8 2327.42 277.84C2328.01 278.88 2328.81 279.693 2329.82 280.28C2330.84 280.84 2332.01 281.12 2333.34 281.12ZM2358.3 284.4C2356.52 284.4 2354.92 283.973 2353.5 283.12C2352.09 282.24 2350.97 281.067 2350.14 279.6C2349.34 278.133 2348.94 276.48 2348.94 274.64C2348.94 272.773 2349.34 271.107 2350.14 269.64C2350.97 268.147 2352.09 266.973 2353.5 266.12C2354.92 265.24 2356.5 264.8 2358.26 264.8C2359.7 264.8 2360.98 265.093 2362.1 265.68C2363.25 266.24 2364.17 267.04 2364.86 268.08C2365.58 269.093 2366.02 270.28 2366.18 271.64V277.52C2366.02 278.88 2365.58 280.08 2364.86 281.12C2364.17 282.16 2363.25 282.973 2362.1 283.56C2360.98 284.12 2359.72 284.4 2358.3 284.4ZM2358.74 281.72C2360.69 281.72 2362.25 281.067 2363.42 279.76C2364.62 278.453 2365.22 276.733 2365.22 274.6C2365.22 273.187 2364.94 271.947 2364.38 270.88C2363.85 269.787 2363.09 268.947 2362.1 268.36C2361.14 267.747 2360.01 267.44 2358.7 267.44C2357.37 267.44 2356.18 267.747 2355.14 268.36C2354.13 268.973 2353.32 269.827 2352.7 270.92C2352.12 271.987 2351.82 273.213 2351.82 274.6C2351.82 275.987 2352.12 277.213 2352.7 278.28C2353.32 279.347 2354.14 280.187 2355.18 280.8C2356.22 281.413 2357.41 281.72 2358.74 281.72ZM2365.06 284V278.96L2365.62 274.32L2365.06 269.8V265.2H2367.86V284H2365.06ZM2378.31 284V257.28H2381.11V284H2378.31ZM2373.55 267.72V265.2H2385.83V267.72H2373.55ZM2391.68 284V265.2H2394.52V284H2391.68ZM2393.08 261.12C2392.55 261.12 2392.1 260.933 2391.72 260.56C2391.35 260.16 2391.16 259.693 2391.16 259.16C2391.16 258.6 2391.35 258.133 2391.72 257.76C2392.1 257.387 2392.55 257.2 2393.08 257.2C2393.67 257.2 2394.14 257.387 2394.48 257.76C2394.86 258.133 2395.04 258.6 2395.04 259.16C2395.04 259.693 2394.86 260.16 2394.48 260.56C2394.14 260.933 2393.67 261.12 2393.08 261.12ZM2410.72 284.4C2408.91 284.4 2407.25 283.96 2405.76 283.08C2404.29 282.2 2403.12 281.013 2402.24 279.52C2401.39 278.027 2400.96 276.36 2400.96 274.52C2400.96 272.707 2401.39 271.067 2402.24 269.6C2403.12 268.133 2404.29 266.973 2405.76 266.12C2407.25 265.24 2408.91 264.8 2410.72 264.8C2412.56 264.8 2414.21 265.227 2415.68 266.08C2417.15 266.933 2418.31 268.107 2419.16 269.6C2420.04 271.067 2420.48 272.707 2420.48 274.52C2420.48 276.387 2420.04 278.067 2419.16 279.56C2418.31 281.027 2417.15 282.2 2415.68 283.08C2414.21 283.96 2412.56 284.4 2410.72 284.4ZM2410.72 281.68C2412.05 281.68 2413.23 281.373 2414.24 280.76C2415.28 280.147 2416.09 279.293 2416.68 278.2C2417.29 277.107 2417.6 275.88 2417.6 274.52C2417.6 273.16 2417.29 271.96 2416.68 270.92C2416.09 269.853 2415.28 269.013 2414.24 268.4C2413.23 267.787 2412.05 267.48 2410.72 267.48C2409.41 267.48 2408.24 267.787 2407.2 268.4C2406.16 269.013 2405.35 269.853 2404.76 270.92C2404.17 271.96 2403.88 273.16 2403.88 274.52C2403.88 275.907 2404.17 277.147 2404.76 278.24C2405.35 279.307 2406.16 280.147 2407.2 280.76C2408.24 281.373 2409.41 281.68 2410.72 281.68ZM2429 284.4C2428.33 284.4 2427.78 284.173 2427.36 283.72C2426.93 283.267 2426.72 282.72 2426.72 282.08C2426.72 281.44 2426.93 280.907 2427.36 280.48C2427.78 280.027 2428.33 279.8 2429 279.8C2429.64 279.8 2430.17 280.027 2430.6 280.48C2431.02 280.907 2431.24 281.44 2431.24 282.08C2431.24 282.72 2431.02 283.267 2430.6 283.72C2430.17 284.173 2429.64 284.4 2429 284.4ZM2440.64 284V262C2440.64 260.693 2440.92 259.533 2441.48 258.52C2442.07 257.507 2442.87 256.72 2443.88 256.16C2444.92 255.573 2446.09 255.28 2447.4 255.28C2448.41 255.28 2449.31 255.467 2450.08 255.84C2450.85 256.187 2451.56 256.68 2452.2 257.32L2450.36 259.16C2449.93 258.733 2449.48 258.427 2449 258.24C2448.55 258.027 2448.01 257.92 2447.4 257.92C2446.15 257.92 2445.17 258.293 2444.48 259.04C2443.81 259.76 2443.48 260.773 2443.48 262.08V284H2440.64ZM2435.92 267.72V265.2H2449.76V267.72H2435.92ZM2454.96 284V265.2H2457.76V284H2454.96ZM2457.76 273.04L2456.6 272.52C2456.6 270.147 2457.17 268.267 2458.32 266.88C2459.49 265.493 2461.09 264.8 2463.12 264.8C2464.05 264.8 2464.9 264.973 2465.68 265.32C2466.45 265.64 2467.17 266.16 2467.84 266.88L2466 268.84C2465.54 268.333 2465.04 267.973 2464.48 267.76C2463.94 267.547 2463.33 267.44 2462.64 267.44C2461.2 267.44 2460.02 267.92 2459.12 268.88C2458.21 269.813 2457.76 271.2 2457.76 273.04ZM2133.08 334L2125.84 315.2H2128.76L2134.48 330.8L2133.44 330.84L2139.12 315.2H2140.76L2146.44 330.84L2145.4 330.8L2151.08 315.2H2154.04L2146.76 334H2145.12L2139.32 318.6H2140.52L2134.76 334H2133.08ZM2164.03 334L2156.79 315.2H2159.71L2165.43 330.8L2164.39 330.84L2170.07 315.2H2171.71L2177.39 330.84L2176.35 330.8L2182.03 315.2H2184.99L2177.71 334H2176.07L2170.27 318.6H2171.47L2165.71 334H2164.03ZM2194.97 334L2187.73 315.2H2190.65L2196.37 330.8L2195.33 330.84L2201.01 315.2H2202.65L2208.33 330.84L2207.29 330.8L2212.97 315.2H2215.93L2208.65 334H2207.01L2201.21 318.6H2202.41L2196.65 334H2194.97ZM2223.13 334.4C2222.46 334.4 2221.91 334.173 2221.49 333.72C2221.06 333.267 2220.85 332.72 2220.85 332.08C2220.85 331.44 2221.06 330.907 2221.49 330.48C2221.91 330.027 2222.46 329.8 2223.13 329.8C2223.77 329.8 2224.3 330.027 2224.73 330.48C2225.15 330.907 2225.37 331.44 2225.37 332.08C2225.37 332.72 2225.15 333.267 2224.73 333.72C2224.3 334.173 2223.77 334.4 2223.13 334.4ZM2247.41 334V322.96C2247.41 321.307 2246.92 319.973 2245.93 318.96C2244.97 317.92 2243.69 317.4 2242.09 317.4C2241 317.4 2240.04 317.64 2239.21 318.12C2238.38 318.6 2237.73 319.253 2237.25 320.08C2236.77 320.907 2236.53 321.853 2236.53 322.92L2235.25 322.2C2235.25 320.787 2235.58 319.52 2236.25 318.4C2236.92 317.28 2237.81 316.4 2238.93 315.76C2240.08 315.12 2241.38 314.8 2242.85 314.8C2244.29 314.8 2245.57 315.147 2246.69 315.84C2247.81 316.533 2248.68 317.467 2249.29 318.64C2249.93 319.813 2250.25 321.093 2250.25 322.48V334H2247.41ZM2233.73 334V315.2H2236.53V334H2233.73ZM2265.65 334.4C2263.86 334.4 2262.26 333.973 2260.85 333.12C2259.44 332.24 2258.32 331.067 2257.49 329.6C2256.69 328.133 2256.29 326.48 2256.29 324.64C2256.29 322.773 2256.69 321.107 2257.49 319.64C2258.32 318.147 2259.44 316.973 2260.85 316.12C2262.26 315.24 2263.85 314.8 2265.61 314.8C2267.05 314.8 2268.33 315.093 2269.45 315.68C2270.6 316.24 2271.52 317.04 2272.21 318.08C2272.93 319.093 2273.37 320.28 2273.53 321.64V327.52C2273.37 328.88 2272.93 330.08 2272.21 331.12C2271.52 332.16 2270.6 332.973 2269.45 333.56C2268.33 334.12 2267.06 334.4 2265.65 334.4ZM2266.09 331.72C2268.04 331.72 2269.6 331.067 2270.77 329.76C2271.97 328.453 2272.57 326.733 2272.57 324.6C2272.57 323.187 2272.29 321.947 2271.73 320.88C2271.2 319.787 2270.44 318.947 2269.45 318.36C2268.49 317.747 2267.36 317.44 2266.05 317.44C2264.72 317.44 2263.53 317.747 2262.49 318.36C2261.48 318.973 2260.66 319.827 2260.05 320.92C2259.46 321.987 2259.17 323.213 2259.17 324.6C2259.17 325.987 2259.46 327.213 2260.05 328.28C2260.66 329.347 2261.49 330.187 2262.53 330.8C2263.57 331.413 2264.76 331.72 2266.09 331.72ZM2272.41 334V328.96L2272.97 324.32L2272.41 319.8V315.2H2275.21V334H2272.41ZM2289.45 334L2280.77 315.2H2283.89L2291.21 331.64H2289.45L2296.81 315.2H2299.85L2291.09 334H2289.45ZM2305.36 334V315.2H2308.2V334H2305.36ZM2306.76 311.12C2306.22 311.12 2305.77 310.933 2305.4 310.56C2305.02 310.16 2304.84 309.693 2304.84 309.16C2304.84 308.6 2305.02 308.133 2305.4 307.76C2305.77 307.387 2306.22 307.2 2306.76 307.2C2307.34 307.2 2307.81 307.387 2308.16 307.76C2308.53 308.133 2308.72 308.6 2308.72 309.16C2308.72 309.693 2308.53 310.16 2308.16 310.56C2307.81 310.933 2307.34 311.12 2306.76 311.12ZM2323.63 342.32C2321.74 342.32 2320.04 341.96 2318.55 341.24C2317.08 340.547 2315.9 339.56 2314.99 338.28L2316.83 336.44C2317.58 337.453 2318.52 338.24 2319.67 338.8C2320.82 339.36 2322.16 339.64 2323.71 339.64C2325.84 339.64 2327.54 339.067 2328.79 337.92C2330.07 336.773 2330.71 335.213 2330.71 333.24V328.56L2331.27 324.28L2330.71 320.04V315.2H2333.51V333.24C2333.51 335.053 2333.1 336.64 2332.27 338C2331.44 339.36 2330.28 340.413 2328.79 341.16C2327.32 341.933 2325.6 342.32 2323.63 342.32ZM2323.83 333.8C2322.1 333.8 2320.54 333.387 2319.15 332.56C2317.76 331.733 2316.67 330.6 2315.87 329.16C2315.07 327.72 2314.67 326.093 2314.67 324.28C2314.67 322.467 2315.06 320.853 2315.83 319.44C2316.63 318 2317.72 316.867 2319.11 316.04C2320.5 315.213 2322.06 314.8 2323.79 314.8C2325.26 314.8 2326.56 315.08 2327.71 315.64C2328.88 316.2 2329.82 317 2330.51 318.04C2331.23 319.053 2331.67 320.253 2331.83 321.64V326.96C2331.67 328.32 2331.23 329.52 2330.51 330.56C2329.79 331.573 2328.86 332.373 2327.71 332.96C2326.56 333.52 2325.27 333.8 2323.83 333.8ZM2324.35 331.12C2325.66 331.12 2326.79 330.84 2327.75 330.28C2328.74 329.72 2329.5 328.933 2330.03 327.92C2330.59 326.88 2330.87 325.667 2330.87 324.28C2330.87 322.92 2330.59 321.733 2330.03 320.72C2329.5 319.707 2328.74 318.907 2327.75 318.32C2326.76 317.733 2325.62 317.44 2324.31 317.44C2323 317.44 2321.83 317.733 2320.79 318.32C2319.78 318.907 2318.98 319.707 2318.39 320.72C2317.83 321.733 2317.55 322.92 2317.55 324.28C2317.55 325.613 2317.84 326.8 2318.43 327.84C2319.02 328.88 2319.82 329.693 2320.83 330.28C2321.84 330.84 2323.02 331.12 2324.35 331.12ZM2349.31 334.4C2347.53 334.4 2345.93 333.973 2344.51 333.12C2343.1 332.24 2341.98 331.067 2341.15 329.6C2340.35 328.133 2339.95 326.48 2339.95 324.64C2339.95 322.773 2340.35 321.107 2341.15 319.64C2341.98 318.147 2343.1 316.973 2344.51 316.12C2345.93 315.24 2347.51 314.8 2349.27 314.8C2350.71 314.8 2351.99 315.093 2353.11 315.68C2354.26 316.24 2355.18 317.04 2355.87 318.08C2356.59 319.093 2357.03 320.28 2357.19 321.64V327.52C2357.03 328.88 2356.59 330.08 2355.87 331.12C2355.18 332.16 2354.26 332.973 2353.11 333.56C2351.99 334.12 2350.73 334.4 2349.31 334.4ZM2349.75 331.72C2351.7 331.72 2353.26 331.067 2354.43 329.76C2355.63 328.453 2356.23 326.733 2356.23 324.6C2356.23 323.187 2355.95 321.947 2355.39 320.88C2354.86 319.787 2354.1 318.947 2353.11 318.36C2352.15 317.747 2351.02 317.44 2349.71 317.44C2348.38 317.44 2347.19 317.747 2346.15 318.36C2345.14 318.973 2344.33 319.827 2343.71 320.92C2343.13 321.987 2342.83 323.213 2342.83 324.6C2342.83 325.987 2343.13 327.213 2343.71 328.28C2344.33 329.347 2345.15 330.187 2346.19 330.8C2347.23 331.413 2348.42 331.72 2349.75 331.72ZM2356.07 334V328.96L2356.63 324.32L2356.07 319.8V315.2H2358.87V334H2356.07ZM2369.31 334V307.28H2372.11V334H2369.31ZM2364.55 317.72V315.2H2376.83V317.72H2364.55ZM2382.69 334V315.2H2385.53V334H2382.69ZM2384.09 311.12C2383.56 311.12 2383.1 310.933 2382.73 310.56C2382.36 310.16 2382.17 309.693 2382.17 309.16C2382.17 308.6 2382.36 308.133 2382.73 307.76C2383.1 307.387 2383.56 307.2 2384.09 307.2C2384.68 307.2 2385.14 307.387 2385.49 307.76C2385.86 308.133 2386.05 308.6 2386.05 309.16C2386.05 309.693 2385.86 310.16 2385.49 310.56C2385.14 310.933 2384.68 311.12 2384.09 311.12ZM2401.73 334.4C2399.91 334.4 2398.26 333.96 2396.77 333.08C2395.3 332.2 2394.13 331.013 2393.25 329.52C2392.39 328.027 2391.97 326.36 2391.97 324.52C2391.97 322.707 2392.39 321.067 2393.25 319.6C2394.13 318.133 2395.3 316.973 2396.77 316.12C2398.26 315.24 2399.91 314.8 2401.73 314.8C2403.57 314.8 2405.22 315.227 2406.69 316.08C2408.15 316.933 2409.31 318.107 2410.17 319.6C2411.05 321.067 2411.49 322.707 2411.49 324.52C2411.49 326.387 2411.05 328.067 2410.17 329.56C2409.31 331.027 2408.15 332.2 2406.69 333.08C2405.22 333.96 2403.57 334.4 2401.73 334.4ZM2401.73 331.68C2403.06 331.68 2404.23 331.373 2405.25 330.76C2406.29 330.147 2407.1 329.293 2407.69 328.2C2408.3 327.107 2408.61 325.88 2408.61 324.52C2408.61 323.16 2408.3 321.96 2407.69 320.92C2407.1 319.853 2406.29 319.013 2405.25 318.4C2404.23 317.787 2403.06 317.48 2401.73 317.48C2400.42 317.48 2399.25 317.787 2398.21 318.4C2397.17 319.013 2396.35 319.853 2395.77 320.92C2395.18 321.96 2394.89 323.16 2394.89 324.52C2394.89 325.907 2395.18 327.147 2395.77 328.24C2396.35 329.307 2397.17 330.147 2398.21 330.76C2399.25 331.373 2400.42 331.68 2401.73 331.68ZM2420 334.4C2419.34 334.4 2418.79 334.173 2418.36 333.72C2417.94 333.267 2417.72 332.72 2417.72 332.08C2417.72 331.44 2417.94 330.907 2418.36 330.48C2418.79 330.027 2419.34 329.8 2420 329.8C2420.64 329.8 2421.18 330.027 2421.6 330.48C2422.03 330.907 2422.24 331.44 2422.24 332.08C2422.24 332.72 2422.03 333.267 2421.6 333.72C2421.18 334.173 2420.64 334.4 2420 334.4ZM2431.65 334V312C2431.65 310.693 2431.93 309.533 2432.49 308.52C2433.07 307.507 2433.87 306.72 2434.89 306.16C2435.93 305.573 2437.1 305.28 2438.41 305.28C2439.42 305.28 2440.31 305.467 2441.09 305.84C2441.86 306.187 2442.57 306.68 2443.21 307.32L2441.37 309.16C2440.94 308.733 2440.49 308.427 2440.01 308.24C2439.55 308.027 2439.02 307.92 2438.41 307.92C2437.15 307.92 2436.18 308.293 2435.49 309.04C2434.82 309.76 2434.49 310.773 2434.49 312.08V334H2431.65ZM2426.93 317.72V315.2H2440.77V317.72H2426.93ZM2445.97 334V315.2H2448.77V334H2445.97ZM2448.77 323.04L2447.61 322.52C2447.61 320.147 2448.18 318.267 2449.33 316.88C2450.5 315.493 2452.1 314.8 2454.13 314.8C2455.06 314.8 2455.91 314.973 2456.69 315.32C2457.46 315.64 2458.18 316.16 2458.85 316.88L2457.01 318.84C2456.55 318.333 2456.05 317.973 2455.49 317.76C2454.95 317.547 2454.34 317.44 2453.65 317.44C2452.21 317.44 2451.03 317.92 2450.13 318.88C2449.22 319.813 2448.77 321.2 2448.77 323.04Z" fill="white"/>
<path d="M2197 210.484L2075.86 5.18433H1381L1501.75 210.484H2197Z" fill="#08283E"/>
<g clip-path="url(#clip1_54_3)">
<path fill-rule="evenodd" clip-rule="evenodd" d="M1998.93 318.788L1993.61 328.454L1987.96 332.998L1978.3 335.688L1977.5 339.702L1980.26 342.455L2032.73 341.454L2035.78 339.589L2035.16 336.084L2025.32 332.998L2019.67 329.867L2013.45 320.371L2012.6 317.827L1998.93 318.788Z" fill="white"/>
<path d="M1962.25 247.898H2050.71C2052.59 247.898 2054.12 249.436 2054.12 251.304V315.965C2054.12 317.833 2052.58 319.372 2050.71 319.372H1962.25C1960.38 319.372 1958.84 317.841 1958.84 315.965V251.304C1958.84 249.428 1960.37 247.898 1962.25 247.898ZM2048.77 251.305H1964.19C1963.07 251.305 1962.14 252.231 1962.14 253.349V313.921C1962.14 315.038 1963.06 315.965 1964.19 315.965H2048.77C2049.9 315.965 2050.82 315.046 2050.82 313.921V253.349C2050.82 252.223 2049.89 251.305 2048.77 251.305Z" fill="white"/>
<path d="M1980.93 332.998H2032.03C2033.44 332.998 2034.71 333.572 2035.64 334.496C2035.67 334.531 2035.71 334.568 2035.74 334.606C2036.6 335.521 2037.14 336.753 2037.14 338.102C2037.14 339.508 2036.56 340.784 2035.64 341.708C2035.6 341.744 2035.56 341.778 2035.52 341.81C2034.61 342.675 2033.37 343.207 2032.03 343.207H1980.93C1979.53 343.207 1978.26 342.632 1977.33 341.705C1976.4 340.781 1975.83 339.508 1975.83 338.102C1975.83 336.702 1976.4 335.427 1977.32 334.502L1977.33 334.496C1978.26 333.572 1979.53 332.998 1980.93 332.998ZM2032.03 336.405H1980.93C1980.46 336.405 1980.04 336.594 1979.73 336.898L1979.73 336.904C1979.42 337.212 1979.23 337.636 1979.23 338.102C1979.23 338.567 1979.43 338.991 1979.73 339.299V339.306C1980.04 339.611 1980.46 339.8 1980.93 339.8H2032.03C2032.47 339.8 2032.87 339.635 2033.17 339.365L2033.23 339.3C2033.54 338.991 2033.73 338.567 2033.73 338.103C2033.73 337.665 2033.56 337.265 2033.29 336.963L2033.23 336.904C2032.92 336.597 2032.5 336.405 2032.03 336.405Z" fill="white"/>
<path d="M1997.5 317.808C1997.67 316.886 1998.56 316.278 1999.48 316.451C2000.4 316.623 2001.01 317.511 2000.84 318.433C1999.92 323.291 1997.44 327.549 1993.96 330.699C1990.47 333.852 1985.98 335.896 1981.06 336.321C1980.13 336.402 1979.3 335.707 1979.22 334.771C1979.14 333.834 1979.83 333.008 1980.77 332.927C1984.94 332.567 1988.74 330.843 1991.68 328.184C1994.62 325.522 1996.72 321.92 1997.5 317.808Z" fill="white"/>
<path d="M2011.52 318.354C2011.35 317.432 2011.96 316.549 2012.89 316.384C2013.81 316.219 2014.69 316.833 2014.86 317.755C2015.61 321.883 2017.7 325.509 2020.66 328.195C2023.61 330.878 2027.42 332.618 2031.61 332.981C2032.54 333.061 2033.24 333.887 2033.16 334.824C2033.07 335.76 2032.25 336.455 2031.31 336.374C2026.36 335.946 2021.86 333.886 2018.37 330.711C2014.88 327.54 2012.41 323.249 2011.52 318.354Z" fill="white"/>
<path fill-rule="evenodd" clip-rule="evenodd" d="M1959.86 302.341H2053.18V305.746H1959.86V302.341Z" fill="white"/>
<path d="M2006.48 312.561C2007.42 312.561 2008.18 311.799 2008.18 310.859C2008.18 309.918 2007.42 309.156 2006.48 309.156C2005.54 309.156 2004.78 309.918 2004.78 310.859C2004.78 311.799 2005.54 312.561 2006.48 312.561Z" fill="white"/>
</g>
<path d="M1426.03 266.43C1404.74 244.365 1370.24 244.37 1348.96 266.442C1327.68 288.514 1327.68 324.293 1348.97 346.358C1370.26 368.423 1404.76 368.418 1426.04 346.346C1436.26 335.746 1442 321.37 1442 306.382C1442 291.396 1436.25 277.025 1426.03 266.43ZM1415.54 328.601C1415.54 328.604 1415.53 328.607 1415.53 328.609V328.59L1412.77 331.434C1409.2 335.184 1404 336.727 1399.05 335.503C1394.07 334.121 1389.34 331.92 1385.03 328.986C1381.03 326.333 1377.32 323.231 1373.97 319.737C1370.88 316.565 1368.11 313.082 1365.7 309.339C1363.06 305.313 1360.97 300.926 1359.49 296.304C1357.79 290.875 1359.2 284.918 1363.12 280.915L1366.35 277.562C1367.25 276.626 1368.71 276.623 1369.62 277.555C1369.62 277.557 1369.62 277.56 1369.62 277.562L1379.83 288.148C1380.74 289.081 1380.74 290.595 1379.84 291.531C1379.84 291.534 1379.84 291.536 1379.83 291.539L1373.84 297.755C1372.12 299.519 1371.9 302.322 1373.33 304.348C1375.5 307.433 1377.9 310.337 1380.51 313.031C1383.41 316.06 1386.57 318.814 1389.95 321.263C1391.9 322.674 1394.55 322.436 1396.24 320.698L1402.03 314.595C1402.93 313.659 1404.39 313.655 1405.3 314.587C1405.3 314.59 1405.3 314.592 1405.3 314.595L1415.53 325.219C1416.43 326.151 1416.44 327.665 1415.54 328.601Z" fill="white"/>
<path d="M1508.56 271.92V269.4H1524.92V271.92H1508.56ZM1515.44 262.08H1518.04V279.2H1515.44V262.08ZM1550 284.4C1548.24 284.4 1546.62 284.053 1545.16 283.36C1543.72 282.667 1542.5 281.667 1541.52 280.36L1543.48 278.4C1544.14 279.413 1545.05 280.213 1546.2 280.8C1547.34 281.36 1548.6 281.64 1549.96 281.64C1551.29 281.64 1552.44 281.387 1553.4 280.88C1554.38 280.373 1555.14 279.667 1555.68 278.76C1556.24 277.827 1556.52 276.747 1556.52 275.52C1556.52 274.267 1556.24 273.187 1555.68 272.28C1555.14 271.373 1554.37 270.667 1553.36 270.16C1552.37 269.653 1551.18 269.4 1549.8 269.4C1549.34 269.4 1548.88 269.427 1548.4 269.48C1547.94 269.533 1547.49 269.627 1547.04 269.76L1548.16 268.12C1548.61 267.88 1549.1 267.693 1549.64 267.56C1550.17 267.427 1550.76 267.36 1551.4 267.36C1552.92 267.36 1554.29 267.72 1555.52 268.44C1556.74 269.133 1557.7 270.107 1558.4 271.36C1559.12 272.587 1559.48 274.013 1559.48 275.64C1559.48 277.373 1559.08 278.893 1558.28 280.2C1557.48 281.507 1556.36 282.533 1554.92 283.28C1553.5 284.027 1551.86 284.4 1550 284.4ZM1547.04 269.76V267.96L1555.76 258.16L1559.16 258.28L1550.28 268.2L1547.04 269.76ZM1542.72 259.08V256.48H1559.16V258.28L1556.64 259.08H1542.72ZM1573.4 284.4C1571.64 284.4 1570.03 284.053 1568.56 283.36C1567.12 282.667 1565.91 281.667 1564.92 280.36L1566.88 278.4C1567.55 279.413 1568.46 280.213 1569.6 280.8C1570.75 281.36 1572 281.64 1573.36 281.64C1574.7 281.64 1575.84 281.387 1576.8 280.88C1577.79 280.373 1578.55 279.667 1579.08 278.76C1579.64 277.827 1579.92 276.747 1579.92 275.52C1579.92 274.267 1579.64 273.187 1579.08 272.28C1578.55 271.373 1577.78 270.667 1576.76 270.16C1575.78 269.653 1574.59 269.4 1573.2 269.4C1572.75 269.4 1572.28 269.427 1571.8 269.48C1571.35 269.533 1570.9 269.627 1570.44 269.76L1571.56 268.12C1572.02 267.88 1572.51 267.693 1573.04 267.56C1573.58 267.427 1574.16 267.36 1574.8 267.36C1576.32 267.36 1577.7 267.72 1578.92 268.44C1580.15 269.133 1581.11 270.107 1581.8 271.36C1582.52 272.587 1582.88 274.013 1582.88 275.64C1582.88 277.373 1582.48 278.893 1581.68 280.2C1580.88 281.507 1579.76 282.533 1578.32 283.28C1576.91 284.027 1575.27 284.4 1573.4 284.4ZM1570.44 269.76V267.96L1579.16 258.16L1582.56 258.28L1573.68 268.2L1570.44 269.76ZM1566.12 259.08V256.48H1582.56V258.28L1580.04 259.08H1566.12ZM1604.72 284V256.48H1607.6V284H1604.72ZM1598.92 259.08V256.48H1607.2V259.08H1598.92ZM1629.79 284L1640.35 258.12L1643.19 258.32L1632.83 284H1629.79ZM1625.03 259.08V256.48H1643.19V258.32L1641.91 259.08H1625.03ZM1652.3 284L1662.86 258.12L1665.7 258.32L1655.34 284H1652.3ZM1647.54 259.08V256.48H1665.7V258.32L1664.42 259.08H1647.54ZM1691.11 284.4C1689.35 284.4 1687.75 283.987 1686.31 283.16C1684.89 282.307 1683.76 281.173 1682.91 279.76C1682.08 278.347 1681.67 276.773 1681.67 275.04C1681.67 272.693 1682.48 270.4 1684.11 268.16L1692.75 256.48H1696.19L1687.63 267.8L1686.59 268.2C1686.96 267.72 1687.39 267.32 1687.87 267C1688.37 266.653 1688.95 266.387 1689.59 266.2C1690.23 266.013 1690.96 265.92 1691.79 265.92C1693.41 265.92 1694.89 266.32 1696.23 267.12C1697.56 267.893 1698.63 268.96 1699.43 270.32C1700.23 271.68 1700.63 273.227 1700.63 274.96C1700.63 276.693 1700.2 278.28 1699.35 279.72C1698.49 281.133 1697.35 282.267 1695.91 283.12C1694.47 283.973 1692.87 284.4 1691.11 284.4ZM1691.15 281.68C1692.35 281.68 1693.44 281.387 1694.43 280.8C1695.44 280.187 1696.24 279.373 1696.83 278.36C1697.41 277.32 1697.71 276.187 1697.71 274.96C1697.71 273.707 1697.41 272.573 1696.83 271.56C1696.24 270.547 1695.44 269.747 1694.43 269.16C1693.44 268.547 1692.35 268.24 1691.15 268.24C1689.92 268.24 1688.8 268.547 1687.79 269.16C1686.8 269.747 1686.01 270.547 1685.43 271.56C1684.87 272.547 1684.59 273.68 1684.59 274.96C1684.59 276.213 1684.87 277.36 1685.43 278.4C1686.01 279.413 1686.8 280.213 1687.79 280.8C1688.8 281.387 1689.92 281.68 1691.15 281.68ZM1715.73 284.4C1713.97 284.4 1712.37 283.987 1710.93 283.16C1709.51 282.307 1708.38 281.173 1707.53 279.76C1706.7 278.347 1706.29 276.773 1706.29 275.04C1706.29 272.693 1707.1 270.4 1708.73 268.16L1717.37 256.48H1720.81L1712.25 267.8L1711.21 268.2C1711.58 267.72 1712.01 267.32 1712.49 267C1712.99 266.653 1713.57 266.387 1714.21 266.2C1714.85 266.013 1715.58 265.92 1716.41 265.92C1718.03 265.92 1719.51 266.32 1720.85 267.12C1722.18 267.893 1723.25 268.96 1724.05 270.32C1724.85 271.68 1725.25 273.227 1725.25 274.96C1725.25 276.693 1724.82 278.28 1723.97 279.72C1723.11 281.133 1721.97 282.267 1720.53 283.12C1719.09 283.973 1717.49 284.4 1715.73 284.4ZM1715.77 281.68C1716.97 281.68 1718.06 281.387 1719.05 280.8C1720.06 280.187 1720.86 279.373 1721.45 278.36C1722.03 277.32 1722.33 276.187 1722.33 274.96C1722.33 273.707 1722.03 272.573 1721.45 271.56C1720.86 270.547 1720.06 269.747 1719.05 269.16C1718.06 268.547 1716.97 268.24 1715.77 268.24C1714.54 268.24 1713.42 268.547 1712.41 269.16C1711.42 269.747 1710.63 270.547 1710.05 271.56C1709.49 272.547 1709.21 273.68 1709.21 274.96C1709.21 276.213 1709.49 277.36 1710.05 278.4C1710.63 279.413 1711.42 280.213 1712.41 280.8C1713.42 281.387 1714.54 281.68 1715.77 281.68ZM1745.86 284L1756.42 258.12L1759.26 258.32L1748.9 284H1745.86ZM1741.1 259.08V256.48H1759.26V258.32L1757.98 259.08H1741.1ZM1768.36 284L1778.92 258.12L1781.76 258.32L1771.4 284H1768.36ZM1763.6 259.08V256.48H1781.76V258.32L1780.48 259.08H1763.6ZM1805.81 284.4C1804 284.4 1802.37 284.053 1800.93 283.36C1799.49 282.667 1798.28 281.667 1797.29 280.36L1799.25 278.4C1799.92 279.413 1800.81 280.213 1801.93 280.8C1803.08 281.36 1804.36 281.64 1805.77 281.64C1807.1 281.64 1808.28 281.387 1809.29 280.88C1810.3 280.347 1811.09 279.613 1811.65 278.68C1812.24 277.72 1812.53 276.6 1812.53 275.32C1812.53 274.013 1812.25 272.893 1811.69 271.96C1811.13 271 1810.37 270.267 1809.41 269.76C1808.45 269.253 1807.37 269 1806.17 269C1805.02 269 1803.97 269.16 1803.01 269.48C1802.08 269.773 1801.22 270.253 1800.45 270.92L1800.37 269C1800.85 268.467 1801.4 268.027 1802.01 267.68C1802.62 267.333 1803.3 267.067 1804.05 266.88C1804.82 266.693 1805.68 266.6 1806.61 266.6C1808.45 266.6 1810.04 267 1811.37 267.8C1812.7 268.573 1813.72 269.627 1814.41 270.96C1815.13 272.293 1815.49 273.8 1815.49 275.48C1815.49 277.213 1815.08 278.747 1814.25 280.08C1813.42 281.413 1812.28 282.467 1810.81 283.24C1809.37 284.013 1807.7 284.4 1805.81 284.4ZM1800.45 270.92L1798.89 269.32L1800.09 256.48H1802.77L1801.45 269.6L1800.45 270.92ZM1800.81 259.08L1800.09 256.48H1814.25V259.08H1800.81ZM1829.33 284.4C1827.57 284.4 1825.96 284.053 1824.49 283.36C1823.05 282.667 1821.84 281.667 1820.85 280.36L1822.81 278.4C1823.48 279.413 1824.39 280.213 1825.53 280.8C1826.68 281.36 1827.93 281.64 1829.29 281.64C1830.63 281.64 1831.77 281.387 1832.73 280.88C1833.72 280.373 1834.48 279.667 1835.01 278.76C1835.57 277.827 1835.85 276.747 1835.85 275.52C1835.85 274.267 1835.57 273.187 1835.01 272.28C1834.48 271.373 1833.71 270.667 1832.69 270.16C1831.71 269.653 1830.52 269.4 1829.13 269.4C1828.68 269.4 1828.21 269.427 1827.73 269.48C1827.28 269.533 1826.83 269.627 1826.37 269.76L1827.49 268.12C1827.95 267.88 1828.44 267.693 1828.97 267.56C1829.51 267.427 1830.09 267.36 1830.73 267.36C1832.25 267.36 1833.63 267.72 1834.85 268.44C1836.08 269.133 1837.04 270.107 1837.73 271.36C1838.45 272.587 1838.81 274.013 1838.81 275.64C1838.81 277.373 1838.41 278.893 1837.61 280.2C1836.81 281.507 1835.69 282.533 1834.25 283.28C1832.84 284.027 1831.2 284.4 1829.33 284.4ZM1826.37 269.76V267.96L1835.09 258.16L1838.49 258.28L1829.61 268.2L1826.37 269.76ZM1822.05 259.08V256.48H1838.49V258.28L1835.97 259.08H1822.05ZM1508.56 321.92V319.4H1524.92V321.92H1508.56ZM1515.44 312.08H1518.04V329.2H1515.44V312.08ZM1550 334.4C1548.24 334.4 1546.62 334.053 1545.16 333.36C1543.72 332.667 1542.5 331.667 1541.52 330.36L1543.48 328.4C1544.14 329.413 1545.05 330.213 1546.2 330.8C1547.34 331.36 1548.6 331.64 1549.96 331.64C1551.29 331.64 1552.44 331.387 1553.4 330.88C1554.38 330.373 1555.14 329.667 1555.68 328.76C1556.24 327.827 1556.52 326.747 1556.52 325.52C1556.52 324.267 1556.24 323.187 1555.68 322.28C1555.14 321.373 1554.37 320.667 1553.36 320.16C1552.37 319.653 1551.18 319.4 1549.8 319.4C1549.34 319.4 1548.88 319.427 1548.4 319.48C1547.94 319.533 1547.49 319.627 1547.04 319.76L1548.16 318.12C1548.61 317.88 1549.1 317.693 1549.64 317.56C1550.17 317.427 1550.76 317.36 1551.4 317.36C1552.92 317.36 1554.29 317.72 1555.52 318.44C1556.74 319.133 1557.7 320.107 1558.4 321.36C1559.12 322.587 1559.48 324.013 1559.48 325.64C1559.48 327.373 1559.08 328.893 1558.28 330.2C1557.48 331.507 1556.36 332.533 1554.92 333.28C1553.5 334.027 1551.86 334.4 1550 334.4ZM1547.04 319.76V317.96L1555.76 308.16L1559.16 308.28L1550.28 318.2L1547.04 319.76ZM1542.72 309.08V306.48H1559.16V308.28L1556.64 309.08H1542.72ZM1573.4 334.4C1571.64 334.4 1570.03 334.053 1568.56 333.36C1567.12 332.667 1565.91 331.667 1564.92 330.36L1566.88 328.4C1567.55 329.413 1568.46 330.213 1569.6 330.8C1570.75 331.36 1572 331.64 1573.36 331.64C1574.7 331.64 1575.84 331.387 1576.8 330.88C1577.79 330.373 1578.55 329.667 1579.08 328.76C1579.64 327.827 1579.92 326.747 1579.92 325.52C1579.92 324.267 1579.64 323.187 1579.08 322.28C1578.55 321.373 1577.78 320.667 1576.76 320.16C1575.78 319.653 1574.59 319.4 1573.2 319.4C1572.75 319.4 1572.28 319.427 1571.8 319.48C1571.35 319.533 1570.9 319.627 1570.44 319.76L1571.56 318.12C1572.02 317.88 1572.51 317.693 1573.04 317.56C1573.58 317.427 1574.16 317.36 1574.8 317.36C1576.32 317.36 1577.7 317.72 1578.92 318.44C1580.15 319.133 1581.11 320.107 1581.8 321.36C1582.52 322.587 1582.88 324.013 1582.88 325.64C1582.88 327.373 1582.48 328.893 1581.68 330.2C1580.88 331.507 1579.76 332.533 1578.32 333.28C1576.91 334.027 1575.27 334.4 1573.4 334.4ZM1570.44 319.76V317.96L1579.16 308.16L1582.56 308.28L1573.68 318.2L1570.44 319.76ZM1566.12 309.08V306.48H1582.56V308.28L1580.04 309.08H1566.12ZM1608.76 334.4C1607 334.4 1605.4 333.987 1603.96 333.16C1602.55 332.307 1601.42 331.173 1600.56 329.76C1599.74 328.347 1599.32 326.773 1599.32 325.04C1599.32 322.693 1600.14 320.4 1601.76 318.16L1610.4 306.48H1613.84L1605.28 317.8L1604.24 318.2C1604.62 317.72 1605.04 317.32 1605.52 317C1606.03 316.653 1606.6 316.387 1607.24 316.2C1607.88 316.013 1608.62 315.92 1609.44 315.92C1611.07 315.92 1612.55 316.32 1613.88 317.12C1615.22 317.893 1616.28 318.96 1617.08 320.32C1617.88 321.68 1618.28 323.227 1618.28 324.96C1618.28 326.693 1617.86 328.28 1617 329.72C1616.15 331.133 1615 332.267 1613.56 333.12C1612.12 333.973 1610.52 334.4 1608.76 334.4ZM1608.8 331.68C1610 331.68 1611.1 331.387 1612.08 330.8C1613.1 330.187 1613.9 329.373 1614.48 328.36C1615.07 327.32 1615.36 326.187 1615.36 324.96C1615.36 323.707 1615.07 322.573 1614.48 321.56C1613.9 320.547 1613.1 319.747 1612.08 319.16C1611.1 318.547 1610 318.24 1608.8 318.24C1607.58 318.24 1606.46 318.547 1605.44 319.16C1604.46 319.747 1603.67 320.547 1603.08 321.56C1602.52 322.547 1602.24 323.68 1602.24 324.96C1602.24 326.213 1602.52 327.36 1603.08 328.4C1603.67 329.413 1604.46 330.213 1605.44 330.8C1606.46 331.387 1607.58 331.68 1608.8 331.68ZM1638.9 334L1649.46 308.12L1652.3 308.32L1641.94 334H1638.9ZM1634.14 309.08V306.48H1652.3V308.32L1651.02 309.08H1634.14ZM1661.4 334L1671.96 308.12L1674.8 308.32L1664.44 334H1661.4ZM1656.64 309.08V306.48H1674.8V308.32L1673.52 309.08H1656.64ZM1700.21 334.4C1698.45 334.4 1696.85 333.987 1695.41 333.16C1694 332.307 1692.86 331.173 1692.01 329.76C1691.18 328.347 1690.77 326.773 1690.77 325.04C1690.77 322.693 1691.58 320.4 1693.21 318.16L1701.85 306.48H1705.29L1696.73 317.8L1695.69 318.2C1696.06 317.72 1696.49 317.32 1696.97 317C1697.48 316.653 1698.05 316.387 1698.69 316.2C1699.33 316.013 1700.06 315.92 1700.89 315.92C1702.52 315.92 1704 316.32 1705.33 317.12C1706.66 317.893 1707.73 318.96 1708.53 320.32C1709.33 321.68 1709.73 323.227 1709.73 324.96C1709.73 326.693 1709.3 328.28 1708.45 329.72C1707.6 331.133 1706.45 332.267 1705.01 333.12C1703.57 333.973 1701.97 334.4 1700.21 334.4ZM1700.25 331.68C1701.45 331.68 1702.54 331.387 1703.53 330.8C1704.54 330.187 1705.34 329.373 1705.93 328.36C1706.52 327.32 1706.81 326.187 1706.81 324.96C1706.81 323.707 1706.52 322.573 1705.93 321.56C1705.34 320.547 1704.54 319.747 1703.53 319.16C1702.54 318.547 1701.45 318.24 1700.25 318.24C1699.02 318.24 1697.9 318.547 1696.89 319.16C1695.9 319.747 1695.12 320.547 1694.53 321.56C1693.97 322.547 1693.69 323.68 1693.69 324.96C1693.69 326.213 1693.97 327.36 1694.53 328.4C1695.12 329.413 1695.9 330.213 1696.89 330.8C1697.9 331.387 1699.02 331.68 1700.25 331.68ZM1724.83 334.4C1723.07 334.4 1721.47 333.987 1720.03 333.16C1718.61 332.307 1717.48 331.173 1716.63 329.76C1715.8 328.347 1715.39 326.773 1715.39 325.04C1715.39 322.693 1716.2 320.4 1717.83 318.16L1726.47 306.48H1729.91L1721.35 317.8L1720.31 318.2C1720.68 317.72 1721.11 317.32 1721.59 317C1722.09 316.653 1722.67 316.387 1723.31 316.2C1723.95 316.013 1724.68 315.92 1725.51 315.92C1727.13 315.92 1728.61 316.32 1729.95 317.12C1731.28 317.893 1732.35 318.96 1733.15 320.32C1733.95 321.68 1734.35 323.227 1734.35 324.96C1734.35 326.693 1733.92 328.28 1733.07 329.72C1732.21 331.133 1731.07 332.267 1729.63 333.12C1728.19 333.973 1726.59 334.4 1724.83 334.4ZM1724.87 331.68C1726.07 331.68 1727.16 331.387 1728.15 330.8C1729.16 330.187 1729.96 329.373 1730.55 328.36C1731.13 327.32 1731.43 326.187 1731.43 324.96C1731.43 323.707 1731.13 322.573 1730.55 321.56C1729.96 320.547 1729.16 319.747 1728.15 319.16C1727.16 318.547 1726.07 318.24 1724.87 318.24C1723.64 318.24 1722.52 318.547 1721.51 319.16C1720.52 319.747 1719.73 320.547 1719.15 321.56C1718.59 322.547 1718.31 323.68 1718.31 324.96C1718.31 326.213 1718.59 327.36 1719.15 328.4C1719.73 329.413 1720.52 330.213 1721.51 330.8C1722.52 331.387 1723.64 331.68 1724.87 331.68ZM1754.96 334L1765.52 308.12L1768.36 308.32L1758 334H1754.96ZM1750.2 309.08V306.48H1768.36V308.32L1767.08 309.08H1750.2ZM1777.47 334L1788.03 308.12L1790.87 308.32L1780.51 334H1777.47ZM1772.71 309.08V306.48H1790.87V308.32L1789.59 309.08H1772.71ZM1814.91 334.4C1813.1 334.4 1811.47 334.053 1810.03 333.36C1808.59 332.667 1807.38 331.667 1806.39 330.36L1808.35 328.4C1809.02 329.413 1809.91 330.213 1811.03 330.8C1812.18 331.36 1813.46 331.64 1814.87 331.64C1816.21 331.64 1817.38 331.387 1818.39 330.88C1819.41 330.347 1820.19 329.613 1820.75 328.68C1821.34 327.72 1821.63 326.6 1821.63 325.32C1821.63 324.013 1821.35 322.893 1820.79 321.96C1820.23 321 1819.47 320.267 1818.51 319.76C1817.55 319.253 1816.47 319 1815.27 319C1814.13 319 1813.07 319.16 1812.11 319.48C1811.18 319.773 1810.33 320.253 1809.55 320.92L1809.47 319C1809.95 318.467 1810.5 318.027 1811.11 317.68C1811.73 317.333 1812.41 317.067 1813.15 316.88C1813.93 316.693 1814.78 316.6 1815.71 316.6C1817.55 316.6 1819.14 317 1820.47 317.8C1821.81 318.573 1822.82 319.627 1823.51 320.96C1824.23 322.293 1824.59 323.8 1824.59 325.48C1824.59 327.213 1824.18 328.747 1823.35 330.08C1822.53 331.413 1821.38 332.467 1819.91 333.24C1818.47 334.013 1816.81 334.4 1814.91 334.4ZM1809.55 320.92L1807.99 319.32L1809.19 306.48H1811.87L1810.55 319.6L1809.55 320.92ZM1809.91 309.08L1809.19 306.48H1823.35V309.08H1809.91ZM1838.44 334.4C1836.68 334.4 1835.06 334.053 1833.6 333.36C1832.16 332.667 1830.94 331.667 1829.96 330.36L1831.92 328.4C1832.58 329.413 1833.49 330.213 1834.64 330.8C1835.78 331.36 1837.04 331.64 1838.4 331.64C1839.73 331.64 1840.88 331.387 1841.84 330.88C1842.82 330.373 1843.58 329.667 1844.12 328.76C1844.68 327.827 1844.96 326.747 1844.96 325.52C1844.96 324.267 1844.68 323.187 1844.12 322.28C1843.58 321.373 1842.81 320.667 1841.8 320.16C1840.81 319.653 1839.62 319.4 1838.24 319.4C1837.78 319.4 1837.32 319.427 1836.84 319.48C1836.38 319.533 1835.93 319.627 1835.48 319.76L1836.6 318.12C1837.05 317.88 1837.54 317.693 1838.08 317.56C1838.61 317.427 1839.2 317.36 1839.84 317.36C1841.36 317.36 1842.73 317.72 1843.96 318.44C1845.18 319.133 1846.14 320.107 1846.84 321.36C1847.56 322.587 1847.92 324.013 1847.92 325.64C1847.92 327.373 1847.52 328.893 1846.72 330.2C1845.92 331.507 1844.8 332.533 1843.36 333.28C1841.94 334.027 1840.3 334.4 1838.44 334.4ZM1835.48 319.76V317.96L1844.2 308.16L1847.6 308.28L1838.72 318.2L1835.48 319.76ZM1831.16 309.08V306.48H1847.6V308.28L1845.08 309.08H1831.16Z" fill="white"/>
<path d="M1655.07 104.96C1650.21 104.96 1645.7 104.096 1641.54 102.368C1637.44 100.576 1633.86 98.112 1630.79 94.976C1627.71 91.776 1625.35 88.096 1623.68 83.936C1622.02 79.712 1621.19 75.2 1621.19 70.4C1621.19 65.6 1622.02 61.12 1623.68 56.96C1625.35 52.736 1627.71 49.056 1630.79 45.92C1633.86 42.784 1637.44 40.32 1641.54 38.528C1645.7 36.736 1650.21 35.84 1655.07 35.84C1660.51 35.84 1665.22 36.736 1669.19 38.528C1673.15 40.32 1676.67 42.752 1679.75 45.824L1672.26 53.312C1670.27 51.136 1667.84 49.44 1664.96 48.224C1662.15 47.008 1658.85 46.4 1655.07 46.4C1651.75 46.4 1648.71 46.976 1645.95 48.128C1643.2 49.28 1640.8 50.944 1638.75 53.12C1636.77 55.232 1635.23 57.76 1634.15 60.704C1633.06 63.648 1632.51 66.88 1632.51 70.4C1632.51 73.92 1633.06 77.152 1634.15 80.096C1635.23 83.04 1636.77 85.6 1638.75 87.776C1640.8 89.888 1643.2 91.52 1645.95 92.672C1648.71 93.824 1651.75 94.4 1655.07 94.4C1659.17 94.4 1662.63 93.792 1665.44 92.576C1668.32 91.296 1670.75 89.568 1672.74 87.392L1680.23 94.88C1677.15 98.016 1673.54 100.48 1669.38 102.272C1665.22 104.064 1660.45 104.96 1655.07 104.96ZM1708.35 104.96C1703.87 104.96 1699.81 103.904 1696.16 101.792C1692.51 99.616 1689.6 96.704 1687.42 93.056C1685.31 89.408 1684.26 85.344 1684.26 80.864C1684.26 76.384 1685.31 72.352 1687.42 68.768C1689.6 65.184 1692.51 62.336 1696.16 60.224C1699.81 58.048 1703.87 56.96 1708.35 56.96C1712.9 56.96 1716.99 58.016 1720.64 60.128C1724.29 62.24 1727.17 65.12 1729.28 68.768C1731.46 72.352 1732.54 76.384 1732.54 80.864C1732.54 85.344 1731.46 89.408 1729.28 93.056C1727.17 96.704 1724.29 99.616 1720.64 101.792C1716.99 103.904 1712.9 104.96 1708.35 104.96ZM1708.35 94.784C1710.98 94.784 1713.28 94.208 1715.26 93.056C1717.31 91.84 1718.88 90.176 1719.97 88.064C1721.12 85.952 1721.7 83.552 1721.7 80.864C1721.7 78.176 1721.12 75.808 1719.97 73.76C1718.82 71.712 1717.25 70.112 1715.26 68.96C1713.28 67.744 1710.98 67.136 1708.35 67.136C1705.79 67.136 1703.49 67.744 1701.44 68.96C1699.46 70.112 1697.89 71.712 1696.74 73.76C1695.65 75.808 1695.1 78.176 1695.1 80.864C1695.1 83.552 1695.65 85.952 1696.74 88.064C1697.89 90.176 1699.46 91.84 1701.44 93.056C1703.49 94.208 1705.79 94.784 1708.35 94.784ZM1772.91 104V77.408C1772.91 74.336 1771.92 71.808 1769.93 69.824C1768.01 67.84 1765.52 66.848 1762.44 66.848C1760.4 66.848 1758.57 67.296 1756.97 68.192C1755.37 69.088 1754.12 70.336 1753.23 71.936C1752.33 73.536 1751.88 75.36 1751.88 77.408L1747.76 75.104C1747.76 71.584 1748.52 68.48 1750.06 65.792C1751.6 63.04 1753.71 60.896 1756.4 59.36C1759.15 57.76 1762.22 56.96 1765.61 56.96C1769.07 56.96 1772.14 57.856 1774.83 59.648C1777.52 61.376 1779.63 63.648 1781.16 66.464C1782.7 69.216 1783.47 72.096 1783.47 75.104V104H1772.91ZM1741.32 104V57.92H1751.88V104H1741.32ZM1800.65 104V38.72H1811.21V104H1800.65ZM1789.61 67.52V57.92H1822.25V67.52H1789.61ZM1847.9 104.96C1843.74 104.96 1839.97 103.904 1836.57 101.792C1833.25 99.68 1830.59 96.832 1828.61 93.248C1826.69 89.6 1825.73 85.536 1825.73 81.056C1825.73 76.512 1826.69 72.448 1828.61 68.864C1830.59 65.216 1833.25 62.336 1836.57 60.224C1839.97 58.048 1843.74 56.96 1847.9 56.96C1851.42 56.96 1854.53 57.728 1857.21 59.264C1859.97 60.736 1862.14 62.784 1863.74 65.408C1865.34 68.032 1866.14 71.008 1866.14 74.336V87.584C1866.14 90.912 1865.34 93.888 1863.74 96.512C1862.21 99.136 1860.06 101.216 1857.31 102.752C1854.56 104.224 1851.42 104.96 1847.9 104.96ZM1849.63 94.976C1853.53 94.976 1856.67 93.664 1859.04 91.04C1861.47 88.416 1862.69 85.056 1862.69 80.96C1862.69 78.208 1862.14 75.776 1861.05 73.664C1859.97 71.552 1858.43 69.92 1856.45 68.768C1854.53 67.552 1852.25 66.944 1849.63 66.944C1847.07 66.944 1844.8 67.552 1842.81 68.768C1840.89 69.92 1839.36 71.552 1838.21 73.664C1837.12 75.776 1836.57 78.208 1836.57 80.96C1836.57 83.712 1837.12 86.144 1838.21 88.256C1839.36 90.368 1840.89 92.032 1842.81 93.248C1844.8 94.4 1847.07 94.976 1849.63 94.976ZM1862.01 104V91.616L1863.84 80.384L1862.01 69.248V57.92H1872.57V104H1862.01ZM1905.51 104.96C1900.97 104.96 1896.84 103.904 1893.13 101.792C1889.48 99.68 1886.6 96.8 1884.49 93.152C1882.37 89.504 1881.32 85.44 1881.32 80.96C1881.32 76.416 1882.37 72.352 1884.49 68.768C1886.6 65.12 1889.48 62.24 1893.13 60.128C1896.84 58.016 1900.97 56.96 1905.51 56.96C1909.09 56.96 1912.42 57.664 1915.49 59.072C1918.63 60.416 1921.29 62.368 1923.46 64.928L1916.55 71.936C1915.21 70.336 1913.57 69.152 1911.65 68.384C1909.8 67.552 1907.75 67.136 1905.51 67.136C1902.89 67.136 1900.55 67.744 1898.5 68.96C1896.52 70.112 1894.95 71.712 1893.8 73.76C1892.71 75.808 1892.17 78.208 1892.17 80.96C1892.17 83.648 1892.71 86.048 1893.8 88.16C1894.95 90.208 1896.52 91.84 1898.5 93.056C1900.55 94.208 1902.89 94.784 1905.51 94.784C1907.75 94.784 1909.8 94.4 1911.65 93.632C1913.57 92.8 1915.21 91.584 1916.55 89.984L1923.46 96.992C1921.29 99.552 1918.63 101.536 1915.49 102.944C1912.42 104.288 1909.09 104.96 1905.51 104.96ZM1937.33 104V38.72H1947.89V104H1937.33ZM1926.29 67.52V57.92H1958.93V67.52H1926.29Z" fill="white"/>
<path d="M1654.21 159L1665.49 131.48H1667.69L1678.85 159H1675.69L1665.97 134.68H1667.13L1657.33 159H1654.21ZM1659.37 151.84V149.24H1673.77V151.84H1659.37ZM1686.94 159L1678.26 140.2H1681.38L1688.7 156.64H1686.94L1694.3 140.2H1697.34L1688.58 159H1686.94ZM1708.18 159.4C1706.4 159.4 1704.8 158.973 1703.38 158.12C1701.97 157.24 1700.85 156.067 1700.02 154.6C1699.22 153.133 1698.82 151.48 1698.82 149.64C1698.82 147.773 1699.22 146.107 1700.02 144.64C1700.85 143.147 1701.97 141.973 1703.38 141.12C1704.8 140.24 1706.38 139.8 1708.14 139.8C1709.58 139.8 1710.86 140.093 1711.98 140.68C1713.13 141.24 1714.05 142.04 1714.74 143.08C1715.46 144.093 1715.9 145.28 1716.06 146.64V152.52C1715.9 153.88 1715.46 155.08 1714.74 156.12C1714.05 157.16 1713.13 157.973 1711.98 158.56C1710.86 159.12 1709.6 159.4 1708.18 159.4ZM1708.62 156.72C1710.57 156.72 1712.13 156.067 1713.3 154.76C1714.5 153.453 1715.1 151.733 1715.1 149.6C1715.1 148.187 1714.82 146.947 1714.26 145.88C1713.73 144.787 1712.97 143.947 1711.98 143.36C1711.02 142.747 1709.89 142.44 1708.58 142.44C1707.25 142.44 1706.06 142.747 1705.02 143.36C1704.01 143.973 1703.2 144.827 1702.58 145.92C1702 146.987 1701.7 148.213 1701.7 149.6C1701.7 150.987 1702 152.213 1702.58 153.28C1703.2 154.347 1704.02 155.187 1705.06 155.8C1706.1 156.413 1707.29 156.72 1708.62 156.72ZM1714.94 159V153.96L1715.5 149.32L1714.94 144.8V140.2H1717.74V159H1714.94ZM1737.1 159V147.96C1737.1 146.307 1736.61 144.973 1735.62 143.96C1734.66 142.92 1733.38 142.4 1731.78 142.4C1730.69 142.4 1729.73 142.64 1728.9 143.12C1728.08 143.6 1727.42 144.253 1726.94 145.08C1726.46 145.907 1726.22 146.853 1726.22 147.92L1724.94 147.2C1724.94 145.787 1725.28 144.52 1725.94 143.4C1726.61 142.28 1727.5 141.4 1728.62 140.76C1729.77 140.12 1731.08 139.8 1732.54 139.8C1733.98 139.8 1735.26 140.147 1736.38 140.84C1737.5 141.533 1738.37 142.467 1738.98 143.64C1739.62 144.813 1739.94 146.093 1739.94 147.48V159H1737.1ZM1723.42 159V140.2H1726.22V159H1723.42ZM1747.87 159V132.28H1750.67V159H1747.87ZM1743.11 142.72V140.2H1755.39V142.72H1743.11ZM1767.84 159V130.68H1770.64V159H1767.84ZM1784.99 159.4C1783.1 159.4 1781.41 158.973 1779.91 158.12C1778.42 157.267 1777.23 156.093 1776.35 154.6C1775.5 153.107 1775.07 151.427 1775.07 149.56C1775.07 147.72 1775.5 146.067 1776.35 144.6C1777.21 143.107 1778.37 141.933 1779.83 141.08C1781.3 140.227 1782.94 139.8 1784.75 139.8C1786.46 139.8 1787.97 140.187 1789.27 140.96C1790.61 141.733 1791.65 142.813 1792.39 144.2C1793.17 145.56 1793.55 147.133 1793.55 148.92C1793.55 149.133 1793.54 149.387 1793.51 149.68C1793.49 149.947 1793.43 150.267 1793.35 150.64H1777.07V148.24H1791.83L1790.83 149.12C1790.86 147.733 1790.62 146.547 1790.11 145.56C1789.63 144.547 1788.93 143.773 1787.99 143.24C1787.09 142.68 1785.98 142.4 1784.67 142.4C1783.31 142.4 1782.13 142.693 1781.11 143.28C1780.1 143.867 1779.3 144.693 1778.71 145.76C1778.15 146.8 1777.87 148.04 1777.87 149.48C1777.87 150.92 1778.17 152.187 1778.75 153.28C1779.37 154.373 1780.21 155.227 1781.27 155.84C1782.37 156.453 1783.62 156.76 1785.03 156.76C1786.18 156.76 1787.23 156.56 1788.19 156.16C1789.15 155.733 1789.97 155.107 1790.63 154.28L1792.43 156.12C1791.55 157.16 1790.46 157.973 1789.15 158.56C1787.87 159.12 1786.49 159.4 1784.99 159.4ZM1814.43 159.4C1812.7 159.4 1811.14 158.973 1809.75 158.12C1808.36 157.267 1807.26 156.107 1806.43 154.64C1805.63 153.147 1805.23 151.48 1805.23 149.64C1805.23 147.773 1805.63 146.107 1806.43 144.64C1807.26 143.147 1808.36 141.973 1809.75 141.12C1811.14 140.24 1812.7 139.8 1814.43 139.8C1815.84 139.8 1817.12 140.08 1818.27 140.64C1819.42 141.2 1820.36 142 1821.11 143.04C1821.88 144.053 1822.34 145.253 1822.47 146.64V152.52C1822.31 153.88 1821.86 155.08 1821.11 156.12C1820.39 157.133 1819.46 157.933 1818.31 158.52C1817.16 159.107 1815.87 159.4 1814.43 159.4ZM1814.91 156.72C1816.22 156.72 1817.36 156.427 1818.35 155.84C1819.34 155.227 1820.11 154.387 1820.67 153.32C1821.23 152.227 1821.51 150.987 1821.51 149.6C1821.51 148.187 1821.22 146.947 1820.63 145.88C1820.07 144.813 1819.3 143.973 1818.31 143.36C1817.32 142.747 1816.18 142.44 1814.87 142.44C1813.56 142.44 1812.4 142.747 1811.39 143.36C1810.38 143.973 1809.58 144.827 1808.99 145.92C1808.43 146.987 1808.15 148.213 1808.15 149.6C1808.15 150.987 1808.43 152.227 1808.99 153.32C1809.58 154.387 1810.38 155.227 1811.39 155.84C1812.43 156.427 1813.6 156.72 1814.91 156.72ZM1824.15 159H1821.35V153.96L1821.91 149.32L1821.35 144.8V130.68H1824.15V159ZM1838.51 159.4C1836.61 159.4 1834.92 158.973 1833.43 158.12C1831.93 157.267 1830.75 156.093 1829.87 154.6C1829.01 153.107 1828.59 151.427 1828.59 149.56C1828.59 147.72 1829.01 146.067 1829.87 144.6C1830.72 143.107 1831.88 141.933 1833.35 141.08C1834.81 140.227 1836.45 139.8 1838.27 139.8C1839.97 139.8 1841.48 140.187 1842.79 140.96C1844.12 141.733 1845.16 142.813 1845.91 144.2C1846.68 145.56 1847.07 147.133 1847.07 148.92C1847.07 149.133 1847.05 149.387 1847.03 149.68C1847 149.947 1846.95 150.267 1846.87 150.64H1830.59V148.24H1845.35L1844.35 149.12C1844.37 147.733 1844.13 146.547 1843.63 145.56C1843.15 144.547 1842.44 143.773 1841.51 143.24C1840.6 142.68 1839.49 142.4 1838.19 142.4C1836.83 142.4 1835.64 142.693 1834.63 143.28C1833.61 143.867 1832.81 144.693 1832.23 145.76C1831.67 146.8 1831.39 148.04 1831.39 149.48C1831.39 150.92 1831.68 152.187 1832.27 153.28C1832.88 154.373 1833.72 155.227 1834.79 155.84C1835.88 156.453 1837.13 156.76 1838.55 156.76C1839.69 156.76 1840.75 156.56 1841.71 156.16C1842.67 155.733 1843.48 155.107 1844.15 154.28L1845.95 156.12C1845.07 157.16 1843.97 157.973 1842.67 158.56C1841.39 159.12 1840 159.4 1838.51 159.4ZM1835.75 137.28L1834.47 136L1839.79 129.68L1842.03 131.92L1835.75 137.28ZM1861.07 159.4C1859.63 159.4 1858.34 159.107 1857.19 158.52C1856.05 157.933 1855.1 157.133 1854.35 156.12C1853.63 155.08 1853.19 153.88 1853.03 152.52V146.64C1853.19 145.253 1853.65 144.053 1854.39 143.04C1855.14 142 1856.09 141.2 1857.23 140.64C1858.41 140.08 1859.69 139.8 1861.07 139.8C1862.81 139.8 1864.37 140.24 1865.75 141.12C1867.14 141.973 1868.23 143.147 1869.03 144.64C1869.86 146.107 1870.27 147.773 1870.27 149.64C1870.27 151.48 1869.87 153.133 1869.07 154.6C1868.27 156.067 1867.17 157.24 1865.75 158.12C1864.37 158.973 1862.81 159.4 1861.07 159.4ZM1860.59 156.72C1861.93 156.72 1863.1 156.427 1864.11 155.84C1865.13 155.227 1865.91 154.387 1866.47 153.32C1867.06 152.227 1867.35 150.987 1867.35 149.6C1867.35 148.187 1867.06 146.947 1866.47 145.88C1865.91 144.813 1865.13 143.973 1864.11 143.36C1863.1 142.747 1861.94 142.44 1860.63 142.44C1859.33 142.44 1858.17 142.747 1857.15 143.36C1856.17 143.973 1855.39 144.813 1854.83 145.88C1854.27 146.947 1853.99 148.187 1853.99 149.6C1853.99 150.987 1854.27 152.227 1854.83 153.32C1855.39 154.387 1856.17 155.227 1857.15 155.84C1858.14 156.427 1859.29 156.72 1860.59 156.72ZM1851.35 166.92V140.2H1854.15V145L1853.59 149.56L1854.15 154.16V166.92H1851.35ZM1882.91 159.4C1881.12 159.4 1879.52 158.973 1878.11 158.12C1876.7 157.24 1875.58 156.067 1874.75 154.6C1873.95 153.133 1873.55 151.48 1873.55 149.64C1873.55 147.773 1873.95 146.107 1874.75 144.64C1875.58 143.147 1876.7 141.973 1878.11 141.12C1879.52 140.24 1881.11 139.8 1882.87 139.8C1884.31 139.8 1885.59 140.093 1886.71 140.68C1887.86 141.24 1888.78 142.04 1889.47 143.08C1890.19 144.093 1890.63 145.28 1890.79 146.64V152.52C1890.63 153.88 1890.19 155.08 1889.47 156.12C1888.78 157.16 1887.86 157.973 1886.71 158.56C1885.59 159.12 1884.32 159.4 1882.91 159.4ZM1883.35 156.72C1885.3 156.72 1886.86 156.067 1888.03 154.76C1889.23 153.453 1889.83 151.733 1889.83 149.6C1889.83 148.187 1889.55 146.947 1888.99 145.88C1888.46 144.787 1887.7 143.947 1886.71 143.36C1885.75 142.747 1884.62 142.44 1883.31 142.44C1881.98 142.44 1880.79 142.747 1879.75 143.36C1878.74 143.973 1877.92 144.827 1877.31 145.92C1876.72 146.987 1876.43 148.213 1876.43 149.6C1876.43 150.987 1876.72 152.213 1877.31 153.28C1877.92 154.347 1878.75 155.187 1879.79 155.8C1880.83 156.413 1882.02 156.72 1883.35 156.72ZM1889.67 159V153.96L1890.23 149.32L1889.67 144.8V140.2H1892.47V159H1889.67ZM1898.15 159V140.2H1900.95V159H1898.15ZM1900.95 148.04L1899.79 147.52C1899.79 145.147 1900.36 143.267 1901.51 141.88C1902.68 140.493 1904.28 139.8 1906.31 139.8C1907.24 139.8 1908.1 139.973 1908.87 140.32C1909.64 140.64 1910.36 141.16 1911.03 141.88L1909.19 143.84C1908.74 143.333 1908.23 142.973 1907.67 142.76C1907.14 142.547 1906.52 142.44 1905.83 142.44C1904.39 142.44 1903.22 142.92 1902.31 143.88C1901.4 144.813 1900.95 146.2 1900.95 148.04ZM1916.73 159V132.28H1919.53V159H1916.73ZM1911.97 142.72V140.2H1924.25V142.72H1911.97Z" fill="white"/>
<path d="M218.296 358L199.768 311.92H210.712L223.192 345.424L219.928 345.52L232.12 311.92H238.264L250.456 345.52L247.192 345.424L259.672 311.92H270.616L252.088 358H245.944L233.464 326.128H236.92L224.44 358H218.296ZM288.515 358L269.987 311.92H280.931L293.411 345.424L290.147 345.52L302.339 311.92H308.483L320.675 345.52L317.411 345.424L329.891 311.92H340.835L322.307 358H316.163L303.683 326.128H307.139L294.659 358H288.515ZM358.734 358L340.206 311.92H351.15L363.63 345.424L360.366 345.52L372.558 311.92H378.702L390.894 345.52L387.63 345.424L400.11 311.92H411.054L392.526 358H386.382L373.902 326.128H377.358L364.878 358H358.734ZM422.639 358.96C420.591 358.96 418.895 358.288 417.551 356.944C416.271 355.536 415.631 353.84 415.631 351.856C415.631 349.808 416.271 348.112 417.551 346.768C418.895 345.424 420.591 344.752 422.639 344.752C424.687 344.752 426.351 345.424 427.631 346.768C428.975 348.112 429.647 349.808 429.647 351.856C429.647 353.84 428.975 355.536 427.631 356.944C426.351 358.288 424.687 358.96 422.639 358.96ZM474.003 358V331.408C474.003 328.336 473.011 325.808 471.027 323.824C469.107 321.84 466.611 320.848 463.539 320.848C461.491 320.848 459.667 321.296 458.067 322.192C456.467 323.088 455.219 324.336 454.323 325.936C453.427 327.536 452.979 329.36 452.979 331.408L448.851 329.104C448.851 325.584 449.619 322.48 451.155 319.792C452.691 317.04 454.803 314.896 457.491 313.36C460.243 311.76 463.315 310.96 466.707 310.96C470.163 310.96 473.235 311.856 475.923 313.648C478.611 315.376 480.723 317.648 482.259 320.464C483.795 323.216 484.562 326.096 484.562 329.104V358H474.003ZM442.419 358V311.92H452.979V358H442.419ZM514.59 358.96C510.43 358.96 506.654 357.904 503.262 355.792C499.934 353.68 497.278 350.832 495.294 347.248C493.374 343.6 492.414 339.536 492.414 335.056C492.414 330.512 493.374 326.448 495.294 322.864C497.278 319.216 499.934 316.336 503.262 314.224C506.654 312.048 510.43 310.96 514.59 310.96C518.11 310.96 521.214 311.728 523.902 313.264C526.654 314.736 528.83 316.784 530.43 319.408C532.03 322.032 532.83 325.008 532.83 328.336V341.584C532.83 344.912 532.03 347.888 530.43 350.512C528.894 353.136 526.75 355.216 523.998 356.752C521.246 358.224 518.11 358.96 514.59 358.96ZM516.318 348.976C520.222 348.976 523.358 347.664 525.726 345.04C528.158 342.416 529.374 339.056 529.374 334.96C529.374 332.208 528.83 329.776 527.742 327.664C526.654 325.552 525.118 323.92 523.134 322.768C521.214 321.552 518.942 320.944 516.318 320.944C513.758 320.944 511.486 321.552 509.502 322.768C507.582 323.92 506.046 325.552 504.894 327.664C503.806 329.776 503.262 332.208 503.262 334.96C503.262 337.712 503.806 340.144 504.894 342.256C506.046 344.368 507.582 346.032 509.502 347.248C511.486 348.4 513.758 348.976 516.318 348.976ZM528.702 358V345.616L530.526 334.384L528.702 323.248V311.92H539.262V358H528.702ZM566.533 358L545.509 311.92H557.221L573.253 349.456H566.341L582.469 311.92H593.701L572.677 358H566.533ZM600.015 358V311.92H610.575V358H600.015ZM605.295 303.472C603.503 303.472 601.999 302.864 600.783 301.648C599.631 300.432 599.055 298.928 599.055 297.136C599.055 295.344 599.631 293.84 600.783 292.624C601.999 291.408 603.503 290.8 605.295 290.8C607.151 290.8 608.655 291.408 609.807 292.624C610.959 293.84 611.535 295.344 611.535 297.136C611.535 298.928 610.959 300.432 609.807 301.648C608.655 302.864 607.151 303.472 605.295 303.472ZM641.619 378.16C636.755 378.16 632.499 377.264 628.851 375.472C625.203 373.744 622.259 371.28 620.019 368.08L626.931 361.168C628.787 363.472 630.899 365.2 633.267 366.352C635.635 367.504 638.483 368.08 641.811 368.08C645.971 368.08 649.267 366.992 651.699 364.816C654.131 362.704 655.347 359.792 655.347 356.08V344.752L657.171 334.576L655.347 324.304V311.92H665.906V356.08C665.906 360.496 664.883 364.336 662.835 367.6C660.787 370.928 657.939 373.52 654.291 375.376C650.643 377.232 646.419 378.16 641.619 378.16ZM641.139 357.04C637.043 357.04 633.331 356.048 630.003 354.064C626.739 352.016 624.147 349.232 622.227 345.712C620.371 342.192 619.443 338.256 619.443 333.904C619.443 329.552 620.371 325.648 622.227 322.192C624.147 318.736 626.739 316.016 630.003 314.032C633.331 311.984 637.043 310.96 641.139 310.96C644.787 310.96 647.987 311.696 650.739 313.168C653.491 314.64 655.635 316.688 657.171 319.312C658.707 321.872 659.475 324.88 659.475 328.336V339.664C659.475 343.056 658.675 346.064 657.075 348.688C655.539 351.312 653.395 353.36 650.643 354.832C647.891 356.304 644.723 357.04 641.139 357.04ZM643.251 347.056C645.811 347.056 648.051 346.512 649.971 345.424C651.891 344.336 653.363 342.832 654.387 340.912C655.475 338.928 656.019 336.624 656.019 334C656.019 331.376 655.475 329.104 654.387 327.184C653.363 325.2 651.891 323.664 649.971 322.576C648.051 321.488 645.811 320.944 643.251 320.944C640.691 320.944 638.419 321.488 636.435 322.576C634.515 323.664 633.011 325.2 631.923 327.184C630.835 329.104 630.291 331.376 630.291 334C630.291 336.56 630.835 338.832 631.923 340.816C633.011 342.8 634.515 344.336 636.435 345.424C638.419 346.512 640.691 347.056 643.251 347.056ZM696.933 358.96C692.773 358.96 688.997 357.904 685.605 355.792C682.277 353.68 679.621 350.832 677.637 347.248C675.717 343.6 674.757 339.536 674.757 335.056C674.757 330.512 675.717 326.448 677.637 322.864C679.621 319.216 682.277 316.336 685.605 314.224C688.997 312.048 692.773 310.96 696.933 310.96C700.453 310.96 703.557 311.728 706.245 313.264C708.997 314.736 711.173 316.784 712.773 319.408C714.373 322.032 715.173 325.008 715.173 328.336V341.584C715.173 344.912 714.373 347.888 712.773 350.512C711.237 353.136 709.093 355.216 706.341 356.752C703.589 358.224 700.453 358.96 696.933 358.96ZM698.661 348.976C702.565 348.976 705.701 347.664 708.069 345.04C710.501 342.416 711.717 339.056 711.717 334.96C711.717 332.208 711.173 329.776 710.085 327.664C708.997 325.552 707.461 323.92 705.477 322.768C703.557 321.552 701.285 320.944 698.661 320.944C696.101 320.944 693.829 321.552 691.845 322.768C689.925 323.92 688.389 325.552 687.237 327.664C686.149 329.776 685.605 332.208 685.605 334.96C685.605 337.712 686.149 340.144 687.237 342.256C688.389 344.368 689.925 346.032 691.845 347.248C693.829 348.4 696.101 348.976 698.661 348.976ZM711.045 358V345.616L712.869 334.384L711.045 323.248V311.92H721.605V358H711.045ZM740.333 358V292.72H750.893V358H740.333ZM729.293 321.52V311.92H761.933V321.52H729.293ZM769.702 358V311.92H780.262V358H769.702ZM774.982 303.472C773.19 303.472 771.686 302.864 770.47 301.648C769.318 300.432 768.742 298.928 768.742 297.136C768.742 295.344 769.318 293.84 770.47 292.624C771.686 291.408 773.19 290.8 774.982 290.8C776.838 290.8 778.342 291.408 779.494 292.624C780.646 293.84 781.222 295.344 781.222 297.136C781.222 298.928 780.646 300.432 779.494 301.648C778.342 302.864 776.838 303.472 774.982 303.472ZM813.226 358.96C808.746 358.96 804.682 357.904 801.034 355.792C797.386 353.616 794.474 350.704 792.298 347.056C790.186 343.408 789.13 339.344 789.13 334.864C789.13 330.384 790.186 326.352 792.298 322.768C794.474 319.184 797.386 316.336 801.034 314.224C804.682 312.048 808.746 310.96 813.226 310.96C817.77 310.96 821.866 312.016 825.514 314.128C829.162 316.24 832.042 319.12 834.154 322.768C836.33 326.352 837.418 330.384 837.418 334.864C837.418 339.344 836.33 343.408 834.154 347.056C832.042 350.704 829.162 353.616 825.514 355.792C821.866 357.904 817.77 358.96 813.226 358.96ZM813.226 348.784C815.85 348.784 818.154 348.208 820.138 347.056C822.186 345.84 823.754 344.176 824.842 342.064C825.994 339.952 826.57 337.552 826.57 334.864C826.57 332.176 825.994 329.808 824.842 327.76C823.69 325.712 822.122 324.112 820.138 322.96C818.154 321.744 815.85 321.136 813.226 321.136C810.666 321.136 808.362 321.744 806.314 322.96C804.33 324.112 802.762 325.712 801.61 327.76C800.522 329.808 799.978 332.176 799.978 334.864C799.978 337.552 800.522 339.952 801.61 342.064C802.762 344.176 804.33 345.84 806.314 347.056C808.362 348.208 810.666 348.784 813.226 348.784ZM852.67 358.96C850.622 358.96 848.926 358.288 847.582 356.944C846.302 355.536 845.662 353.84 845.662 351.856C845.662 349.808 846.302 348.112 847.582 346.768C848.926 345.424 850.622 344.752 852.67 344.752C854.718 344.752 856.382 345.424 857.662 346.768C859.006 348.112 859.678 349.808 859.678 351.856C859.678 353.84 859.006 355.536 857.662 356.944C856.382 358.288 854.718 358.96 852.67 358.96ZM875.505 358V305.872C875.505 302.352 876.273 299.248 877.809 296.56C879.409 293.872 881.585 291.76 884.337 290.224C887.153 288.688 890.385 287.92 894.033 287.92C896.849 287.92 899.249 288.4 901.233 289.36C903.217 290.32 905.073 291.696 906.801 293.488L899.985 300.304C899.217 299.536 898.385 298.928 897.489 298.48C896.593 298.032 895.441 297.808 894.033 297.808C891.473 297.808 889.489 298.512 888.081 299.92C886.737 301.264 886.065 303.216 886.065 305.776V358H875.505ZM864.465 321.52V311.92H899.985V321.52H864.465ZM906.2 358V311.92H916.76V358H906.2ZM916.76 332.368L913.112 330.544C913.112 324.72 914.392 320.016 916.952 316.432C919.576 312.784 923.512 310.96 928.76 310.96C931.064 310.96 933.144 311.376 935 312.208C936.856 313.04 938.584 314.384 940.184 316.24L933.272 323.344C932.44 322.448 931.512 321.808 930.488 321.424C929.464 321.04 928.28 320.848 926.936 320.848C923.992 320.848 921.56 321.776 919.64 323.632C917.72 325.488 916.76 328.4 916.76 332.368Z" fill="white"/>
<path fill-rule="evenodd" clip-rule="evenodd" d="M1602.5 439.631C1584.55 439.631 1570 424.541 1570 405.933C1570 387.325 1584.55 372.235 1602.5 372.235C1620.45 372.235 1635 387.325 1635 405.933C1635 424.541 1620.45 439.631 1602.5 439.631ZM1602.5 384.015C1611.39 384.015 1618.6 391.487 1618.6 400.706C1618.6 409.924 1602.5 427.852 1602.5 427.852C1602.5 427.852 1586.4 409.924 1586.4 400.706C1586.4 391.487 1593.61 384.015 1602.5 384.015ZM1602.5 394.074C1605.87 394.074 1608.6 396.909 1608.6 400.404C1608.6 403.899 1605.87 406.733 1602.5 406.733C1599.13 406.733 1596.4 403.899 1596.4 400.404C1596.4 396.909 1599.13 394.074 1602.5 394.074Z" fill="white"/>
</g>
<defs>
<linearGradient id="paint0_linear_54_3" x1="2454.95" y1="838.5" x2="1910.29" y2="129.822" gradientUnits="userSpaceOnUse">
<stop stop-color="#053E87"/>
<stop offset="1" stop-color="#0089CE"/>
</linearGradient>
<clipPath id="clip0_54_3">
<rect width="2551" height="450" fill="white"/>
</clipPath>
<clipPath id="clip1_54_3">
<rect width="109" height="109" fill="white" transform="translate(1952 241)"/>
</clipPath>
</defs>
</svg>
