<svg width="200" height="200" viewBox="0 0 200 200" fill="none" xmlns="http://www.w3.org/2000/svg">
<circle cx="100" cy="100" r="97.5" fill="white" stroke="#08283E" stroke-width="5"/>
<g clip-path="url(#clip0_101_3)">
<path d="M158.125 122.5H41.875C41.6287 122.5 41.3849 122.452 41.1573 122.358C40.9298 122.263 40.723 122.125 40.5489 121.951C40.3747 121.777 40.2366 121.57 40.1424 121.343C40.0483 121.115 39.9999 120.871 40 120.625V68.125C39.9999 67.8788 40.0484 67.6349 40.1426 67.4074C40.2368 67.1799 40.3749 66.9732 40.549 66.799C40.7232 66.6249 40.9299 66.4868 41.1574 66.3926C41.3849 66.2984 41.6288 66.2499 41.875 66.25H158.125C158.371 66.2499 158.615 66.2984 158.843 66.3926C159.07 66.4868 159.277 66.6249 159.451 66.799C159.625 66.9732 159.763 67.1799 159.857 67.4074C159.952 67.6349 160 67.8788 160 68.125V120.625C160 120.871 159.952 121.115 159.858 121.343C159.763 121.57 159.625 121.777 159.451 121.951C159.277 122.125 159.07 122.263 158.843 122.358C158.615 122.452 158.371 122.5 158.125 122.5ZM43.75 118.75H156.25V70H43.75V118.75Z" fill="#08283E"/>
<path d="M158.125 128.125H41.875C41.6287 128.125 41.3849 128.077 41.1573 127.983C40.9298 127.888 40.723 127.75 40.5489 127.576C40.3747 127.402 40.2366 127.195 40.1424 126.968C40.0483 126.74 39.9999 126.496 40 126.25V73.75C40 73.2527 40.1975 72.7758 40.5492 72.4242C40.9008 72.0725 41.3777 71.875 41.875 71.875C42.3723 71.875 42.8492 72.0725 43.2008 72.4242C43.5525 72.7758 43.75 73.2527 43.75 73.75V124.375H156.25V73.75C156.25 73.2527 156.448 72.7758 156.799 72.4242C157.151 72.0725 157.628 71.875 158.125 71.875C158.622 71.875 159.099 72.0725 159.451 72.4242C159.802 72.7758 160 73.2527 160 73.75V126.25C160 126.496 159.952 126.74 159.858 126.968C159.763 127.195 159.625 127.402 159.451 127.576C159.277 127.75 159.07 127.888 158.843 127.983C158.615 128.077 158.371 128.125 158.125 128.125Z" fill="#08283E"/>
<path d="M158.125 133.75H41.875C41.6287 133.75 41.3849 133.702 41.1573 133.608C40.9298 133.513 40.723 133.375 40.5489 133.201C40.3747 133.027 40.2366 132.82 40.1424 132.593C40.0483 132.365 39.9999 132.121 40 131.875V79.375C40 78.8777 40.1975 78.4008 40.5492 78.0492C40.9008 77.6975 41.3777 77.5 41.875 77.5C42.3723 77.5 42.8492 77.6975 43.2008 78.0492C43.5525 78.4008 43.75 78.8777 43.75 79.375V130H156.25V79.375C156.25 78.8777 156.448 78.4008 156.799 78.0492C157.151 77.6975 157.628 77.5 158.125 77.5C158.622 77.5 159.099 77.6975 159.451 78.0492C159.802 78.4008 160 78.8777 160 79.375V131.875C160 132.121 159.952 132.365 159.858 132.593C159.763 132.82 159.625 133.027 159.451 133.201C159.277 133.375 159.07 133.513 158.843 133.608C158.615 133.702 158.371 133.75 158.125 133.75Z" fill="#08283E"/>
<path d="M68.125 115C64.0458 115 60.0581 113.79 56.6664 111.524C53.2746 109.258 50.6311 106.037 49.07 102.268C47.5089 98.4991 47.1005 94.3521 47.8963 90.3513C48.6921 86.3504 50.6565 82.6754 53.5409 79.7909C56.4254 76.9065 60.1004 74.9421 64.1013 74.1463C68.1021 73.3505 72.2491 73.7589 76.0179 75.32C79.7866 76.8811 83.0078 79.5246 85.2741 82.9164C87.5404 86.3081 88.75 90.2958 88.75 94.375C88.7438 99.8432 86.5689 105.086 82.7023 108.952C78.8357 112.819 73.5932 114.994 68.125 115ZM68.125 77.5C64.7874 77.5 61.5248 78.4897 58.7498 80.344C55.9747 82.1982 53.8118 84.8337 52.5345 87.9172C51.2573 91.0007 50.9231 94.3937 51.5743 97.6672C52.2254 100.941 53.8326 103.947 56.1926 106.307C58.5526 108.667 61.5594 110.275 64.8329 110.926C68.1063 111.577 71.4993 111.243 74.5828 109.965C77.6663 108.688 80.3018 106.525 82.1561 103.75C84.0103 100.975 85 97.7126 85 94.375C84.995 89.901 83.2155 85.6117 80.0519 82.4481C76.8883 79.2846 72.599 77.505 68.125 77.5Z" fill="#08283E"/>
<path d="M75.625 103.75H56.875C56.6287 103.75 56.3849 103.702 56.1573 103.608C55.9298 103.513 55.723 103.375 55.5489 103.201C55.3747 103.027 55.2366 102.82 55.1424 102.593C55.0483 102.365 54.9999 102.121 55 101.875V94.375C54.9999 94.1288 55.0484 93.8849 55.1426 93.6574C55.2368 93.4299 55.3749 93.2232 55.549 93.049C55.7232 92.8749 55.9299 92.7368 56.1574 92.6426C56.3849 92.5484 56.6288 92.4999 56.875 92.5H79.375C79.6946 92.5 80.0089 92.5817 80.2881 92.7373C80.5673 92.893 80.802 93.1174 80.9701 93.3893C81.1381 93.6612 81.2339 93.9715 81.2482 94.2908C81.2626 94.6101 81.1952 94.9277 81.0522 95.2136L77.3022 102.714C77.1464 103.025 76.907 103.287 76.6108 103.47C76.3145 103.653 75.9732 103.75 75.625 103.75ZM58.75 100H74.4659L76.3409 96.25H58.75V100Z" fill="#08283E"/>
<path d="M73.75 96.25H60.625C60.3788 96.2501 60.1349 96.2016 59.9074 96.1074C59.6799 96.0132 59.4732 95.8751 59.299 95.701C59.1249 95.5268 58.9868 95.3201 58.8926 95.0926C58.7984 94.8651 58.7499 94.6212 58.75 94.375V88.75C58.7499 88.5038 58.7984 88.2599 58.8926 88.0324C58.9868 87.8049 59.1249 87.5982 59.299 87.424C59.4732 87.2499 59.6799 87.1118 59.9074 87.0176C60.1349 86.9234 60.3788 86.8749 60.625 86.875H73.75C73.9962 86.8749 74.2401 86.9234 74.4676 87.0176C74.6951 87.1118 74.9018 87.2499 75.076 87.424C75.2501 87.5982 75.3882 87.8049 75.4824 88.0324C75.5766 88.2599 75.6251 88.5038 75.625 88.75V94.375C75.6251 94.6212 75.5766 94.8651 75.4824 95.0926C75.3882 95.3201 75.2501 95.5268 75.076 95.701C74.9018 95.8751 74.6951 96.0132 74.4676 96.1074C74.2401 96.2016 73.9962 96.2501 73.75 96.25ZM62.5 92.5H71.875V90.625H62.5V92.5Z" fill="#08283E"/>
<path d="M64.375 90.625C64.1288 90.6251 63.8849 90.5766 63.6574 90.4824C63.4299 90.3882 63.2232 90.2501 63.049 90.076C62.8749 89.9018 62.7368 89.6951 62.6426 89.4676C62.5484 89.2401 62.4999 88.9962 62.5 88.75V85C62.5 84.5027 62.6975 84.0258 63.0492 83.6742C63.4008 83.3225 63.8777 83.125 64.375 83.125C64.8723 83.125 65.3492 83.3225 65.7008 83.6742C66.0525 84.0258 66.25 84.5027 66.25 85V88.75C66.2501 88.9962 66.2016 89.2401 66.1074 89.4676C66.0132 89.6951 65.8751 89.9018 65.701 90.076C65.5268 90.2501 65.3201 90.3882 65.0926 90.4824C64.8651 90.5766 64.6212 90.6251 64.375 90.625Z" fill="#08283E"/>
<path d="M70 90.625C69.7538 90.6251 69.5099 90.5766 69.2824 90.4824C69.0549 90.3882 68.8482 90.2501 68.674 90.076C68.4999 89.9018 68.3618 89.6951 68.2676 89.4676C68.1734 89.2401 68.1249 88.9962 68.125 88.75V85C68.125 84.5027 68.3225 84.0258 68.6742 83.6742C69.0258 83.3225 69.5027 83.125 70 83.125C70.4973 83.125 70.9742 83.3225 71.3258 83.6742C71.6775 84.0258 71.875 84.5027 71.875 85V88.75C71.8751 88.9962 71.8266 89.2401 71.7324 89.4676C71.6382 89.6951 71.5001 89.9018 71.326 90.076C71.1518 90.2501 70.9451 90.3882 70.7176 90.4824C70.4901 90.5766 70.2462 90.6251 70 90.625Z" fill="#08283E"/>
<path d="M85.3132 103.75H50.9351C50.4378 103.75 49.9609 103.552 49.6092 103.201C49.2576 102.849 49.0601 102.372 49.0601 101.875C49.0601 101.378 49.2576 100.901 49.6092 100.549C49.9609 100.198 50.4378 100 50.9351 100H85.3132C85.8105 100 86.2874 100.198 86.639 100.549C86.9906 100.901 87.1882 101.378 87.1882 101.875C87.1882 102.372 86.9906 102.849 86.639 103.201C86.2874 103.552 85.8105 103.75 85.3132 103.75Z" fill="#08283E"/>
<path d="M126.25 81.25H96.25C95.7527 81.25 95.2758 81.0525 94.9242 80.7008C94.5725 80.3492 94.375 79.8723 94.375 79.375C94.375 78.8777 94.5725 78.4008 94.9242 78.0492C95.2758 77.6975 95.7527 77.5 96.25 77.5H126.25C126.747 77.5 127.224 77.6975 127.576 78.0492C127.927 78.4008 128.125 78.8777 128.125 79.375C128.125 79.8723 127.927 80.3492 127.576 80.7008C127.224 81.0525 126.747 81.25 126.25 81.25Z" fill="#08283E"/>
<path d="M126.25 100H96.25C95.7527 100 95.2758 99.8025 94.9242 99.4508C94.5725 99.0992 94.375 98.6223 94.375 98.125C94.375 97.6277 94.5725 97.1508 94.9242 96.7992C95.2758 96.4475 95.7527 96.25 96.25 96.25H126.25C126.747 96.25 127.224 96.4475 127.576 96.7992C127.927 97.1508 128.125 97.6277 128.125 98.125C128.125 98.6223 127.927 99.0992 127.576 99.4508C127.224 99.8025 126.747 100 126.25 100Z" fill="#08283E"/>
<path d="M126.25 105.625H96.25C95.7527 105.625 95.2758 105.427 94.9242 105.076C94.5725 104.724 94.375 104.247 94.375 103.75C94.375 103.253 94.5725 102.776 94.9242 102.424C95.2758 102.073 95.7527 101.875 96.25 101.875H126.25C126.747 101.875 127.224 102.073 127.576 102.424C127.927 102.776 128.125 103.253 128.125 103.75C128.125 104.247 127.927 104.724 127.576 105.076C127.224 105.427 126.747 105.625 126.25 105.625Z" fill="#08283E"/>
<path d="M109.375 86.875H96.25C95.7527 86.875 95.2758 86.6775 94.9242 86.3258C94.5725 85.9742 94.375 85.4973 94.375 85C94.375 84.5027 94.5725 84.0258 94.9242 83.6742C95.2758 83.3225 95.7527 83.125 96.25 83.125H109.375C109.872 83.125 110.349 83.3225 110.701 83.6742C111.052 84.0258 111.25 84.5027 111.25 85C111.25 85.4973 111.052 85.9742 110.701 86.3258C110.349 86.6775 109.872 86.875 109.375 86.875Z" fill="#08283E"/>
<path d="M107.5 111.25H96.25C95.7527 111.25 95.2758 111.052 94.9242 110.701C94.5725 110.349 94.375 109.872 94.375 109.375C94.375 108.878 94.5725 108.401 94.9242 108.049C95.2758 107.698 95.7527 107.5 96.25 107.5H107.5C107.997 107.5 108.474 107.698 108.826 108.049C109.177 108.401 109.375 108.878 109.375 109.375C109.375 109.872 109.177 110.349 108.826 110.701C108.474 111.052 107.997 111.25 107.5 111.25Z" fill="#08283E"/>
<path d="M126.248 111.25H114.998C114.501 111.25 114.024 111.052 113.672 110.701C113.321 110.349 113.123 109.872 113.123 109.375C113.123 108.878 113.321 108.401 113.672 108.049C114.024 107.698 114.501 107.5 114.998 107.5H126.248C126.745 107.5 127.222 107.698 127.574 108.049C127.926 108.401 128.123 108.878 128.123 109.375C128.123 109.872 127.926 110.349 127.574 110.701C127.222 111.052 126.745 111.25 126.248 111.25Z" fill="#08283E"/>
<path d="M137.5 133.75C137.254 133.75 137.01 133.702 136.782 133.608C136.555 133.513 136.348 133.375 136.174 133.201C136 133.027 135.862 132.82 135.767 132.593C135.673 132.365 135.625 132.121 135.625 131.875V68.125C135.625 67.6277 135.823 67.1508 136.174 66.7992C136.526 66.4475 137.003 66.25 137.5 66.25C137.997 66.25 138.474 66.4475 138.826 66.7992C139.177 67.1508 139.375 67.6277 139.375 68.125V131.875C139.375 132.121 139.327 132.365 139.233 132.593C139.138 132.82 139 133.027 138.826 133.201C138.652 133.375 138.445 133.513 138.218 133.608C137.99 133.702 137.746 133.75 137.5 133.75Z" fill="#08283E"/>
<path d="M150.625 115C150.379 115 150.135 114.952 149.907 114.858C149.68 114.763 149.473 114.625 149.299 114.451C149.125 114.277 148.987 114.07 148.892 113.843C148.798 113.615 148.75 113.371 148.75 113.125V75.625C148.75 75.1277 148.948 74.6508 149.299 74.2992C149.651 73.9475 150.128 73.75 150.625 73.75C151.122 73.75 151.599 73.9475 151.951 74.2992C152.302 74.6508 152.5 75.1277 152.5 75.625V113.125C152.5 113.371 152.452 113.615 152.358 113.843C152.263 114.07 152.125 114.277 151.951 114.451C151.777 114.625 151.57 114.763 151.343 114.858C151.115 114.952 150.871 115 150.625 115Z" fill="#08283E"/>
<path d="M145 107.5C144.754 107.5 144.51 107.452 144.282 107.358C144.055 107.263 143.848 107.125 143.674 106.951C143.5 106.777 143.362 106.57 143.267 106.343C143.173 106.115 143.125 105.871 143.125 105.625V83.125C143.125 82.6277 143.323 82.1508 143.674 81.7992C144.026 81.4475 144.503 81.25 145 81.25C145.497 81.25 145.974 81.4475 146.326 81.7992C146.677 82.1508 146.875 82.6277 146.875 83.125V105.625C146.875 105.871 146.827 106.115 146.733 106.343C146.638 106.57 146.5 106.777 146.326 106.951C146.152 107.125 145.945 107.263 145.718 107.358C145.49 107.452 145.246 107.5 145 107.5Z" fill="#08283E"/>
</g>
<defs>
<clipPath id="clip0_101_3">
<rect width="120" height="120" fill="white" transform="translate(40 40)"/>
</clipPath>
</defs>
</svg>
