<svg width="800" height="175" viewBox="0 0 800 175" fill="none" xmlns="http://www.w3.org/2000/svg">
<path d="M107.532 7.79219V135.86H84.1446L28.4274 55.2549H27.4894V135.86H0.412598V7.79219H24.1752L79.4542 88.3347H80.5801V7.79219H107.532ZM156.792 137.673C150.664 137.673 145.203 136.611 140.409 134.485C135.615 132.317 131.821 129.127 129.027 124.917C126.276 120.665 124.9 115.37 124.9 109.033C124.9 103.697 125.88 99.2158 127.84 95.5889C129.799 91.9615 132.467 89.0437 135.844 86.8338C139.22 84.6245 143.056 82.9569 147.35 81.8315C151.686 80.7061 156.23 79.9137 160.982 79.4554C166.568 78.8717 171.071 78.3295 174.489 77.8292C177.908 77.2875 180.388 76.495 181.931 75.4531C183.473 74.4111 184.244 72.8682 184.244 70.8257V70.4502C184.244 66.4898 182.994 63.4257 180.492 61.2583C178.033 59.0904 174.531 58.0063 169.987 58.0063C165.192 58.0063 161.378 59.0694 158.543 61.1953C155.708 63.2799 153.833 65.9061 152.915 69.0746L128.277 67.0735C129.528 61.2373 131.988 56.1928 135.656 51.9406C139.325 47.6467 144.057 44.3532 149.851 42.0604C155.687 39.7258 162.441 38.5585 170.112 38.5585C175.448 38.5585 180.555 39.1839 185.433 40.4345C190.352 41.6852 194.708 43.6237 198.502 46.2501C202.337 48.8765 205.36 52.2532 207.569 56.3805C209.779 60.4659 210.883 65.3644 210.883 71.0758V135.86H185.62V122.541H184.87C183.327 125.542 181.264 128.19 178.679 130.482C176.094 132.734 172.988 134.505 169.361 135.798C165.735 137.048 161.545 137.673 156.792 137.673ZM164.422 119.289C168.34 119.289 171.801 118.518 174.802 116.975C177.803 115.391 180.159 113.265 181.868 110.597C183.577 107.929 184.432 104.906 184.432 101.529V91.3364C183.598 91.8781 182.452 92.3784 180.992 92.8373C179.575 93.2542 177.97 93.6502 176.178 94.0257C174.385 94.3592 172.592 94.6717 170.8 94.9633C169.007 95.2134 167.381 95.4426 165.922 95.6513C162.795 96.1096 160.065 96.8397 157.731 97.8397C155.396 98.8402 153.582 100.195 152.29 101.904C150.998 103.572 150.352 105.657 150.352 108.158C150.352 111.785 151.665 114.557 154.291 116.475C156.959 118.351 160.336 119.289 164.422 119.289ZM317.659 39.8092L284.079 135.86H254.062L220.482 39.8092H248.622L268.57 108.533H269.571L289.457 39.8092H317.659Z" fill="#FF6565"/>
<path d="M331.291 135.86V39.8092H357.93V135.86H331.291ZM344.673 27.4276C340.712 27.4276 337.315 26.1144 334.48 23.488C331.687 20.8199 330.29 17.6307 330.29 13.9205C330.29 10.2518 331.687 7.10431 334.48 4.47795C337.315 1.80986 340.712 0.475822 344.673 0.475822C348.634 0.475822 352.01 1.80986 354.803 4.47795C357.638 7.10431 359.056 10.2518 359.056 13.9205C359.056 17.6307 357.638 20.8199 354.803 23.488C352.01 26.1144 348.634 27.4276 344.673 27.4276ZM422.542 173.88C413.913 173.88 406.513 172.692 400.343 170.316C394.215 167.981 389.338 164.792 385.711 160.748C382.083 156.704 379.728 152.16 378.644 147.116L403.282 143.802C404.033 145.72 405.221 147.512 406.847 149.18C408.472 150.847 410.62 152.181 413.287 153.182C415.998 154.224 419.291 154.745 423.168 154.745C428.963 154.745 433.736 153.328 437.488 150.493C441.282 147.7 443.178 143.01 443.178 136.423V118.851H442.053C440.886 121.519 439.135 124.041 436.8 126.417C434.465 128.794 431.464 130.732 427.795 132.233C424.126 133.734 419.749 134.485 414.663 134.485C407.451 134.485 400.885 132.817 394.966 129.482C389.087 126.105 384.397 120.956 380.896 114.036C377.435 107.074 375.705 98.2775 375.705 87.6472C375.705 76.7662 377.477 67.6781 381.02 60.3825C384.564 53.0871 389.275 47.6258 395.153 43.9989C401.073 40.3719 407.556 38.5585 414.6 38.5585C419.978 38.5585 424.481 39.4757 428.108 41.31C431.735 43.1026 434.653 45.3538 436.862 48.0636C439.114 50.7316 440.844 53.358 442.053 55.9427H443.054V39.8092H469.505V136.798C469.505 144.969 467.504 151.806 463.501 157.309C459.5 162.812 453.955 166.939 446.868 169.69C439.823 172.483 431.714 173.88 422.542 173.88ZM423.105 114.473C427.399 114.473 431.026 113.41 433.986 111.285C436.988 109.117 439.28 106.031 440.865 102.03C442.49 97.986 443.304 93.1499 443.304 87.5219C443.304 81.8939 442.511 77.0163 440.927 72.8892C439.343 68.7201 437.05 65.4892 434.048 63.1965C431.047 60.9038 427.399 59.7574 423.105 59.7574C418.728 59.7574 415.038 60.9452 412.037 63.3219C409.035 65.656 406.763 68.9079 405.221 73.077C403.678 77.2455 402.907 82.0606 402.907 87.5219C402.907 93.0665 403.678 97.8606 405.221 101.904C406.805 105.907 409.077 109.012 412.037 111.222C415.038 113.39 418.728 114.473 423.105 114.473ZM518.093 137.673C511.965 137.673 506.504 136.61 501.71 134.485C496.915 132.317 493.122 129.127 490.328 124.917C487.577 120.665 486.201 115.37 486.201 109.033C486.201 103.697 487.181 99.2157 489.14 95.5889C491.1 91.9615 493.768 89.0437 497.145 86.8338C500.521 84.6245 504.357 82.9568 508.651 81.8315C512.986 80.7061 517.531 79.9137 522.283 79.4554C527.869 78.8717 532.371 78.3294 535.79 77.8292C539.209 77.2875 541.689 76.495 543.231 75.4531C544.774 74.4111 545.545 72.8682 545.545 70.8257V70.4501C545.545 66.4898 544.294 63.4257 541.793 61.2583C539.333 59.0904 535.831 58.0063 531.287 58.0063C526.493 58.0063 522.679 59.0694 519.844 61.1953C517.009 63.2799 515.133 65.9061 514.216 69.0746L489.578 67.0735C490.828 61.2373 493.288 56.1928 496.957 51.9406C500.626 47.6466 505.357 44.3532 511.152 42.0603C516.988 39.7258 523.742 38.5585 531.413 38.5585C536.749 38.5585 541.856 39.1838 546.733 40.4345C551.652 41.6852 556.009 43.6237 559.803 46.2501C563.638 48.8764 566.661 52.2532 568.87 56.3805C571.079 60.4659 572.184 65.3644 572.184 71.0758V135.86H546.921V122.541H546.17C544.628 125.542 542.564 128.189 539.979 130.482C537.395 132.734 534.289 134.505 530.662 135.798C527.035 137.048 522.845 137.673 518.093 137.673ZM525.722 119.289C529.641 119.289 533.101 118.518 536.103 116.975C539.104 115.391 541.459 113.265 543.169 110.596C544.878 107.929 545.733 104.906 545.733 101.529V91.3364C544.899 91.8781 543.753 92.3784 542.293 92.8373C540.876 93.2542 539.271 93.6501 537.478 94.0257C535.686 94.3592 533.893 94.6717 532.1 94.9633C530.308 95.2134 528.682 95.4426 527.223 95.6513C524.096 96.1096 521.365 96.8396 519.031 97.8396C516.697 98.8402 514.883 100.195 513.591 101.904C512.298 103.572 511.652 105.657 511.652 108.158C511.652 111.785 512.965 114.557 515.592 116.475C518.26 118.351 521.637 119.289 525.722 119.289Z" fill="#FFD700"/>
<path d="M643.942 39.8092V59.8198H586.099V39.8092H643.942ZM599.23 16.797H625.872V106.345C625.872 108.804 626.245 110.722 626.997 112.097C627.743 113.431 628.787 114.37 630.122 114.911C631.499 115.454 633.079 115.724 634.875 115.724C636.122 115.724 637.376 115.62 638.624 115.412C639.878 115.162 640.834 114.974 641.504 114.849L645.691 134.672C644.356 135.089 642.484 135.569 640.064 136.11C637.644 136.694 634.706 137.048 631.248 137.173C624.828 137.423 619.201 136.569 614.362 134.609C609.569 132.65 605.837 129.607 603.172 125.479C600.501 121.352 599.19 116.141 599.23 109.846V16.797ZM661.294 135.86V39.8092H687.936V135.86H661.294ZM674.676 27.4276C670.717 27.4276 667.318 26.1144 664.484 23.488C661.691 20.8199 660.292 17.6307 660.292 13.9205C660.292 10.2518 661.691 7.10431 664.484 4.47795C667.318 1.80986 670.717 0.475822 674.676 0.475822C678.636 0.475822 682.012 1.80986 684.805 4.47795C687.638 7.10431 689.061 10.2518 689.061 13.9205C689.061 17.6307 687.638 20.8199 684.805 23.488C682.012 26.1144 678.636 27.4276 674.676 27.4276ZM752.671 137.736C742.956 137.736 734.554 135.672 727.469 131.545C720.426 127.377 714.985 121.582 711.149 114.161C707.312 106.699 705.394 98.0484 705.394 88.2099C705.394 78.288 707.312 69.6169 711.149 62.1959C714.985 54.7338 720.426 48.939 727.469 44.8118C734.554 40.6429 742.956 38.5585 752.671 38.5585C762.385 38.5585 770.764 40.6429 777.808 44.8118C784.898 48.939 790.356 54.7338 794.192 62.1959C798.029 69.6169 799.948 78.288 799.948 88.2099C799.948 98.0484 798.029 106.699 794.192 114.161C790.356 121.582 784.898 127.377 777.808 131.545C770.764 135.672 762.385 137.736 752.671 137.736ZM752.793 117.1C757.213 117.1 760.904 115.85 763.866 113.348C766.822 110.805 769.055 107.345 770.554 102.967C772.099 98.5901 772.869 93.6087 772.869 88.0222C772.869 82.4361 772.099 77.4542 770.554 73.077C769.055 68.6997 766.822 65.2391 763.866 62.6962C760.904 60.1534 757.213 58.8816 752.793 58.8816C748.332 58.8816 744.583 60.1534 741.539 62.6962C738.536 65.2391 736.268 68.6997 734.723 73.077C733.225 77.4542 732.472 82.4361 732.472 88.0222C732.472 93.6087 733.225 98.5901 734.723 102.967C736.268 107.345 738.536 110.805 741.539 113.348C744.583 115.85 748.332 117.1 752.793 117.1Z" fill="#4190FA"/>
</svg>
