<svg width="200" height="200" viewBox="0 0 200 200" fill="none" xmlns="http://www.w3.org/2000/svg">
<path d="M4 62.1667H62.1667V4H4V62.1667ZM12.3333 12.3333H53.8333V53.8333H12.3333V12.3333Z" fill="#08283E"/>
<path d="M16.8333 49.3333H49.3333V16.8333H16.8333V49.3333ZM25.1666 25.1666H40.9999V40.9999H25.1666V25.1666Z" fill="#08283E"/>
<path d="M4 199.833H62.1667V141.667H4V199.833ZM12.3333 150H53.8333V191.5H12.3333V150Z" fill="#08283E"/>
<path d="M16.8333 187H49.3333V154.5H16.8333V187ZM25.1666 162.833H40.9999V178.667H25.1666V162.833Z" fill="#08283E"/>
<path d="M199.833 4H141.667V62.1667H199.833V4ZM191.5 53.8333H150V12.3333H191.5V53.8333Z" fill="#08283E"/>
<path d="M187 16.8333H154.5V49.3333H187V16.8333ZM178.667 40.9999H162.833V25.1666H178.667V40.9999Z" fill="#08283E"/>
<path d="M108 167.083H133.167V158.75H99.6667V191.5H74.5V199.833H108V167.083Z" fill="#08283E"/>
<path d="M199.833 134.958H191.5V158.75H169.917V145.833H161.583V182.833H169.917V167.083H191.5V191.5H184.875V175.75H176.542V191.5H121.708V199.833H199.833V134.958Z" fill="#08283E"/>
<path d="M184.875 147.333V124.375H141.667V141.667H119.333V150H141.667V175.125H124V183.458H150V132.708H176.542V147.333H184.875Z" fill="#08283E"/>
<path d="M191.5 97.3333H199.833V123H191.5V97.3333Z" fill="#08283E"/>
<path d="M199.833 66.5833H152.375V74.9166H191.5V84.9583H199.833V66.5833Z" fill="#08283E"/>
<path d="M53.8333 116.625H62.1666V94.1667H124.875V116.667H184.875V82.2084H176.542V108.333H147.417V104.708H169.917V80.7917H152.375V89.1251H161.583V96.3751H139.083V108.333H133.208V85.8334H53.8333V116.625Z" fill="#08283E"/>
<path d="M78.6667 132.708V101.917H70.3334V124.375H41.0834V72.5833H32.7501V86.2916H8.16675V94.6249H32.7501V132.708H78.6667Z" fill="#08283E"/>
<path d="M4 133.125H12.3333V109.292H16.8333V123.042H25.1667V100.958H4V133.125Z" fill="#08283E"/>
<path d="M108 119.125V109.292H116.667V100.958H90.5417V109.292H99.6667V119.125H108Z" fill="#08283E"/>
<path d="M108 132.708H126.75V124.375H90.5416V132.708H99.6666V141.667H70.3333V165.292H78.6666V150H108V132.708Z" fill="#08283E"/>
<path d="M68.5417 171.583H90.5418V179.917H68.5417V171.583Z" fill="#08283E"/>
<path d="M101.917 37.25V45.5833H122.583V66.5833H108.667V74.9167H122.583H126.75H135.875V87.7083H144.208V66.5833H130.917V37.25H101.917Z" fill="#08283E"/>
<path d="M96.0417 12.3333H108.833V31.8333H126.75V23.5H117.167V12.3333H129.958V4H96.0417V12.3333Z" fill="#08283E"/>
<path d="M70.8333 4H85.9582V12.3333H70.8333V4Z" fill="#08283E"/>
<path d="M70.8333 31.8333H81.0832V41.4167H89.4166V31.8333H99.7082V23.5H70.8333V31.8333Z" fill="#08283E"/>
<path d="M58 68.4166V76.7499H97V59.7916H113V51.4583H72.6667V59.7916H88.6667V68.4166H58Z" fill="#08283E"/>
<path d="M8.16675 66.5833H24.5001V74.9166H8.16675V66.5833Z" fill="#08283E"/>
</svg>
