<svg width="200" height="200" viewBox="0 0 200 200" fill="none" xmlns="http://www.w3.org/2000/svg">
<circle cx="100" cy="100" r="97.5" stroke="#08283E" stroke-width="5"/>
<g clip-path="url(#clip0_101_6)">
<path fill-rule="evenodd" clip-rule="evenodd" d="M85.0006 44.9871C85.0105 47.7485 82.7799 49.995 80.0184 50.0048C68.9503 50.0442 64.3255 50.4444 60.9208 52.1792C57.1576 54.0966 54.098 57.1562 52.1805 60.9195C50.4458 64.3242 50.0456 68.9489 50.0062 80.0171C49.9964 82.7785 47.7498 85.0091 44.9884 84.9993C42.227 84.9894 39.9964 82.743 40.0062 79.9816C40.0434 69.549 40.2467 62.3141 43.2704 56.3796C46.1466 50.7347 50.736 46.1453 56.381 43.2691C62.3155 40.2453 69.5503 40.042 79.9828 40.0049C82.7443 39.9951 84.9908 42.2257 85.0006 44.9871ZM115.001 44.9871C115.01 42.2257 117.257 39.9951 120.019 40.0049C130.451 40.042 137.686 40.2453 143.62 43.2691C149.265 46.1453 153.855 50.7347 156.731 56.3796C159.755 62.3141 159.958 69.549 159.995 79.9816C160.005 82.743 157.774 84.9894 155.013 84.9993C152.251 85.0091 150.005 82.7785 149.995 80.0171C149.956 68.949 149.555 64.3242 147.821 60.9195C145.903 57.1562 142.843 54.0966 139.08 52.1792C135.676 50.4444 131.051 50.0442 119.983 50.0048C117.222 49.995 114.991 47.7485 115.001 44.9871ZM60 75C60 66.7157 66.7157 60 75 60H80C88.2842 60 95 66.7157 95 75V80C95 88.2842 88.2842 95 80 95H75C66.7157 95 60 88.2842 60 80V75ZM75 70C72.2386 70 70 72.2386 70 75V80C70 82.7614 72.2386 85 75 85H80C82.7614 85 85 82.7614 85 80V75C85 72.2386 82.7614 70 80 70H75ZM105 75C105 66.7157 111.715 60 120 60H125C133.285 60 140 66.7157 140 75V80C140 88.2842 133.285 95 125 95H120C111.715 95 105 88.2842 105 80V75ZM120 70C117.239 70 115 72.2386 115 75V80C115 82.7614 117.239 85 120 85H125C127.761 85 130 82.7614 130 80V75C130 72.2386 127.761 70 125 70H120ZM60 120C60 111.715 66.7157 105 75 105H80C88.2842 105 95 111.715 95 120V125C95 133.285 88.2842 140 80 140H75C66.7157 140 60 133.285 60 125V120ZM75 115C72.2386 115 70 117.239 70 120V125C70 127.761 72.2386 130 75 130H80C82.7614 130 85 127.761 85 125V120C85 117.239 82.7614 115 80 115H75ZM105 112.5C105 108.358 108.358 105 112.5 105C116.642 105 120 108.358 120 112.5C120 116.642 116.642 120 112.5 120C108.358 120 105 116.642 105 112.5ZM125 112.5C125 108.358 128.358 105 132.5 105C136.642 105 140 108.358 140 112.5C140 116.642 136.642 120 132.5 120C128.358 120 125 116.642 125 112.5ZM44.9902 114.593C47.7516 114.585 49.9967 116.816 50.0048 119.578C50.0382 130.928 50.42 135.624 52.1805 139.079C54.098 142.842 57.1576 145.902 60.9208 147.82C64.3255 149.554 68.9503 149.954 80.0184 149.994C82.7799 150.004 85.0105 152.25 85.0006 155.012C84.9908 157.773 82.7443 160.003 79.9828 159.993C69.5503 159.956 62.3155 159.753 56.381 156.729C50.736 153.854 46.1466 149.264 43.2704 143.619C40.2128 137.618 40.0362 130.274 40.0049 119.607C39.9968 116.846 42.2288 114.601 44.9902 114.593ZM155.011 114.593C157.772 114.601 160.005 116.846 159.996 119.607C159.965 130.274 159.789 137.618 156.731 143.619C153.855 149.264 149.265 153.854 143.62 156.729C137.686 159.753 130.451 159.956 120.019 159.993C117.257 160.003 115.011 157.773 115.002 155.012C114.992 152.25 117.222 150.004 119.984 149.994C131.051 149.954 135.676 149.554 139.08 147.82C142.843 145.902 145.903 142.842 147.821 139.079C149.581 135.624 149.963 130.928 149.996 119.578C150.005 116.816 152.249 114.585 155.011 114.593ZM105 132.5C105 128.358 108.358 125 112.5 125C116.642 125 120 128.358 120 132.5C120 136.642 116.642 140 112.5 140C108.358 140 105 136.642 105 132.5ZM125 132.5C125 128.358 128.358 125 132.5 125C136.642 125 140 128.358 140 132.5C140 136.642 136.642 140 132.5 140C128.358 140 125 136.642 125 132.5Z" fill="#08283E"/>
</g>
<defs>
<clipPath id="clip0_101_6">
<rect width="120" height="120" fill="white" transform="translate(37 42)"/>
</clipPath>
</defs>
</svg>
