<svg width="200" height="200" viewBox="0 0 200 200" fill="none" xmlns="http://www.w3.org/2000/svg">
<circle cx="100" cy="100" r="100" fill="#08283E"/>
<path d="M153.406 87.1748C151.841 68.6791 138.05 53.6144 120.165 50.1138C120.315 49.4959 120.396 48.8516 120.396 48.1881C120.396 43.6734 116.723 40 112.208 40C107.693 40 104.02 43.6734 104.02 48.1881C104.02 48.8512 104.101 49.4955 104.25 50.1138C86.3662 53.6144 72.5751 68.6788 71.0095 87.1748H66.7268V94.2091H81.9865C81.9518 97.908 81.5053 101.291 80.8423 102.257C78.142 106.192 76.5823 109.908 75.6816 113.001L73.6859 110.678L53.8416 127.727L81.5695 160L101.414 142.951L97.7735 138.714L114.547 128.99C122.334 124.476 128.755 117.927 133.115 110.053L141.89 94.2088H157.689V87.1745H153.406V87.1748ZM112.208 47.0343C112.844 47.0343 113.362 47.552 113.362 48.1881C113.362 48.8242 112.844 49.3422 112.208 49.3422C111.571 49.3422 111.054 48.8245 111.054 48.1881C111.054 47.5518 111.572 47.0343 112.208 47.0343ZM82.3212 150.08L63.7617 128.478L72.9349 120.597L91.4944 142.199L82.3212 150.08ZM126.962 106.645C123.218 113.406 117.705 119.028 111.019 122.904L93.1104 133.286L81.5353 119.813C81.6715 117.653 82.4538 112.341 86.6423 106.237C88.5991 103.386 89.013 98.0472 89.0297 94.2088H94.5096V98.5968C94.5096 106.221 100.712 112.423 108.336 112.423C113.221 112.423 117.791 109.805 120.263 105.591L126.937 94.2088H133.849L126.962 106.645ZM101.544 98.5968V94.2088H107.753L102.995 102.785C102.088 101.63 101.544 100.176 101.544 98.5968ZM109.669 105.255L115.798 94.2091H118.783L114.195 102.033C113.209 103.713 111.545 104.877 109.669 105.255ZM78.0719 87.1748C79.8387 69.8992 94.474 56.3767 112.208 56.3767C129.942 56.3767 144.577 69.8995 146.344 87.1748H78.0719Z" fill="white"/>
<path d="M62.5906 47.4155H48.8035V54.4498H62.5906V47.4155Z" fill="white"/>
<path d="M62.5906 75.5535H48.8035V82.5878H62.5906V75.5535Z" fill="white"/>
<path d="M62.5908 61.4849H42.311V68.5192H62.5908V61.4849Z" fill="white"/>
</svg>
